<svg width="60" height="60" viewBox="0 0 60 60" fill="none" xmlns="http://www.w3.org/2000/svg">
<path d="M18.1641 11.9531C18.6328 12.3047 19.2188 12.7734 19.8047 13.125C18.8672 13.125 17.9297 13.2422 16.9922 13.2422C15.7031 12.1875 14.8828 10.7812 14.8828 9.25781C14.8828 7.85156 15.7031 6.44531 16.9922 5.39062C18.1641 4.21875 19.8047 3.28125 21.7969 2.46094C25.8984 0.9375 31.4062 0 37.5 0C43.4766 0 48.9844 0.9375 53.0859 2.46094C55.0781 3.28125 56.7188 4.21875 57.8906 5.39062C59.1797 6.44531 60 7.85156 60 9.25781V33.8672C60 35.3906 59.1797 36.6797 57.8906 37.8516C56.7188 38.9062 55.0781 39.8438 52.9688 40.5469C51.6797 41.1328 50.2734 41.4844 48.75 41.8359V39.9609C50.0391 39.6094 51.2109 39.2578 52.3828 38.7891C54.2578 38.0859 55.6641 37.2656 56.7188 36.4453C57.6562 35.5078 58.125 34.6875 58.125 33.8672V25.3125C58.0078 25.3125 58.0078 25.3125 57.8906 25.4297C56.7188 26.4844 55.0781 27.4219 52.9688 28.125C51.6797 28.7109 50.2734 29.0625 48.75 29.4141V27.5391C50.0391 27.1875 51.2109 26.8359 52.3828 26.4844C54.2578 25.6641 55.6641 24.8438 56.7188 24.0234C57.6562 23.0859 58.125 22.2656 58.125 21.4453V13.125C58.0078 13.2422 58.0078 13.2422 57.8906 13.2422C56.7188 14.4141 55.0781 15.3516 53.0859 16.1719C50.625 17.1094 47.8125 17.8125 44.6484 18.1641C43.8281 17.5781 42.8906 17.1094 41.8359 16.6406C45.9375 16.2891 49.5703 15.4688 52.3828 14.4141C54.2578 13.7109 55.6641 12.7734 56.7188 11.9531C57.6562 11.0156 58.125 10.0781 58.125 9.25781C58.125 8.55469 57.6562 7.61719 56.7188 6.67969C55.6641 5.85938 54.2578 4.92188 52.3828 4.21875C48.6328 2.69531 43.3594 1.75781 37.5 1.75781C31.5234 1.75781 26.25 2.69531 22.5 4.21875C20.625 4.92188 19.2188 5.85938 18.1641 6.67969C17.2266 7.61719 16.875 8.55469 16.875 9.25781C16.875 10.0781 17.2266 11.0156 18.1641 11.9531ZM0 26.1328C0 24.7266 0.703125 23.3203 1.99219 22.2656C3.16406 21.0938 4.80469 20.1562 6.79688 19.3359C10.8984 17.8125 16.4062 16.7578 22.5 16.7578C28.4766 16.7578 33.9844 17.8125 38.0859 19.3359C40.0781 20.1562 41.7188 21.0938 42.8906 22.2656C44.1797 23.3203 45 24.7266 45 26.1328V50.7422C45 52.2656 44.1797 53.5547 42.8906 54.7266C41.7188 55.7812 40.0781 56.7188 37.9688 57.4219C33.9844 59.0625 28.4766 59.8828 22.5 59.8828C16.4062 59.8828 10.8984 59.0625 6.91406 57.4219C4.80469 56.7188 3.16406 55.7812 1.99219 54.7266C0.703125 53.5547 0 52.2656 0 50.7422V26.1328ZM3.16406 28.8281C4.21875 29.6484 5.625 30.5859 7.5 31.2891C11.25 32.6953 16.5234 33.6328 22.5 33.6328C28.3594 33.6328 33.6328 32.6953 37.3828 31.2891C39.2578 30.5859 40.6641 29.6484 41.7188 28.8281C42.6562 27.8906 43.125 26.9531 43.125 26.1328C43.125 25.3125 42.6562 24.4922 41.7188 23.5547C40.6641 22.7344 39.2578 21.7969 37.3828 21.0938C33.6328 19.5703 28.3594 18.6328 22.5 18.6328C16.5234 18.6328 11.25 19.5703 7.5 21.0938C5.625 21.7969 4.21875 22.7344 3.16406 23.5547C2.22656 24.4922 1.875 25.3125 1.875 26.1328C1.875 26.9531 2.22656 27.8906 3.16406 28.8281ZM42.8906 30.1172C41.7188 31.2891 40.0781 32.2266 38.0859 33.0469C33.9844 34.5703 28.4766 35.5078 22.5 35.5078C16.4062 35.5078 10.8984 34.5703 6.79688 33.0469C4.80469 32.2266 3.16406 31.2891 1.99219 30.1172C1.875 30.1172 1.875 30.1172 1.875 30V38.3203C1.875 39.1406 2.22656 39.9609 3.16406 40.8984C4.21875 41.7188 5.625 42.5391 7.5 43.3594C11.25 44.7656 16.5234 45.7031 22.5 45.7031C28.3594 45.7031 33.6328 44.7656 37.3828 43.3594C39.2578 42.5391 40.6641 41.7188 41.7188 40.8984C42.6562 39.9609 43.125 39.1406 43.125 38.3203V30C43.0078 30.1172 43.0078 30.1172 42.8906 30.1172ZM1.99219 42.3047C1.875 42.1875 1.875 42.1875 1.875 42.1875V50.7422C1.875 51.5625 2.22656 52.3828 3.16406 53.3203C4.21875 54.1406 5.625 54.9609 7.5 55.6641C11.25 57.1875 16.5234 58.0078 22.5 58.0078C28.3594 58.0078 33.6328 57.1875 37.3828 55.6641C39.2578 54.9609 40.6641 54.1406 41.7188 53.3203C42.6562 52.3828 43.125 51.5625 43.125 50.7422V42.1875C43.0078 42.1875 43.0078 42.1875 42.8906 42.3047C41.7188 43.3594 40.0781 44.2969 37.9688 45C33.9844 46.6406 28.4766 47.5781 22.5 47.5781C16.4062 47.5781 10.8984 46.6406 6.91406 45C4.80469 44.2969 3.16406 43.3594 1.99219 42.3047Z" fill="#2E4D99"/>
</svg>
