<svg width="60" height="60" viewBox="0 0 60 60" fill="none" xmlns="http://www.w3.org/2000/svg">
<path d="M20.625 15.9375C20.625 15.4688 20.1562 15 19.6875 15H8.4375C7.85156 15 7.5 15.4688 7.5 15.9375C7.5 16.5234 7.85156 16.875 8.4375 16.875H19.6875C20.1562 16.875 20.625 16.5234 20.625 15.9375ZM8.4375 9.375H19.6875C20.1562 9.375 20.625 9.02344 20.625 8.4375C20.625 7.96875 20.1562 7.5 19.6875 7.5H8.4375C7.85156 7.5 7.5 7.96875 7.5 8.4375C7.5 9.02344 7.85156 9.375 8.4375 9.375ZM43.8281 17.6953L27.3047 1.17188C26.6016 0.46875 25.6641 0 24.6094 0H7.5C3.28125 0 0 3.39844 0 7.5V52.5C0 56.7188 3.28125 60 7.5 60H37.5C41.6016 60 45 56.7188 45 52.5V20.3906C45 19.3359 44.5312 18.3984 43.8281 17.6953ZM26.25 2.69531L42.3047 18.75H29.0625C27.4219 18.75 26.25 17.5781 26.25 15.9375V2.69531ZM43.125 52.5C43.125 55.6641 40.5469 58.125 37.5 58.125H7.5C4.33594 58.125 1.875 55.6641 1.875 52.5V7.5C1.875 4.45312 4.33594 1.875 7.5 1.875H24.375V15.9375C24.375 18.6328 26.3672 20.625 29.0625 20.625H43.125V52.5ZM22.7344 38.5547L21.7969 38.3203C18.1641 37.2656 16.4062 36.3281 16.875 33.8672C17.3438 31.2891 20.7422 30.7031 24.0234 31.1719C24.8438 31.2891 25.7812 31.5234 27.0703 31.9922C27.5391 32.1094 28.125 31.875 28.2422 31.4062C28.3594 30.8203 28.125 30.3516 27.6562 30.1172C26.25 29.7656 25.1953 29.4141 24.2578 29.2969C23.9062 29.2969 23.6719 29.2969 23.4375 29.1797V27.1875C23.4375 26.7188 22.9688 26.25 22.5 26.25C21.9141 26.25 21.5625 26.7188 21.5625 27.1875V29.1797C17.9297 29.2969 15.5859 30.8203 15 33.5156C14.1797 38.0859 18.6328 39.375 21.3281 40.0781L22.1484 40.3125C26.4844 41.4844 28.4766 42.3047 28.0078 45C27.5391 47.5781 24.1406 48.1641 20.8594 47.6953C19.5703 47.5781 18.0469 46.9922 16.7578 46.5234L16.1719 46.4062C15.7031 46.1719 15.1172 46.4062 15 46.9922C14.7656 47.4609 15.1172 47.9297 15.5859 48.1641L16.1719 48.2812C17.5781 48.8672 19.2188 49.3359 20.625 49.5703C20.9766 49.5703 21.2109 49.5703 21.5625 49.6875V51.5625C21.5625 52.1484 21.9141 52.5 22.5 52.5C22.9688 52.5 23.4375 52.1484 23.4375 51.5625V49.6875C26.9531 49.5703 29.2969 47.9297 29.8828 45.3516C30.7031 40.6641 26.25 39.4922 22.7344 38.5547Z" fill="#2E4D99"/>
</svg>
