<svg width="24" height="24" viewBox="0 0 24 24" fill="none" xmlns="http://www.w3.org/2000/svg">
<path d="M12.4375 5C9.1325 5 6.40687 7.44625 5.95187 10.625H4L6.5 14.3231L9 10.625H7.22062C7.665 8.1425 9.82938 6.25 12.4375 6.25C15.3669 6.25 17.75 8.63313 17.75 11.5625C17.75 14.4919 15.3669 16.875 12.4375 16.875C10.5531 16.875 8.89875 15.8856 7.95563 14.4019L7.20563 15.5113C8.40313 17.0963 10.2981 18.125 12.4375 18.125C16.0606 18.125 19 15.1862 19 11.5625C19 7.93875 16.0606 5 12.4375 5Z" fill="#2E4D99"/>
</svg>
