<svg width="60" height="60" viewBox="0 0 60 60" fill="none" xmlns="http://www.w3.org/2000/svg">
<path d="M15.9375 5C19.4531 5 22.5 8.04688 22.5 11.5625V15.3125H37V11.5625C37 8.04688 39.9297 5 43.5625 5H52.9375C56.4531 5 59.5 8.04688 59.5 11.5625V20.9375C59.5 24.5703 56.4531 27.5 52.9375 27.5H43.5625C39.9297 27.5 37 24.5703 37 20.9375V17.1875H22.5V20.9375C22.5 22.5781 21.9141 23.9844 20.9766 25.0391L26.9453 34.2891C28 33.4688 29.4062 33 30.8125 33H40.1875C43.7031 33 46.75 36.0469 46.75 39.5625V48.9375C46.75 52.5703 43.7031 55.5 40.1875 55.5H30.8125C27.1797 55.5 24.25 52.5703 24.25 48.9375V39.5625C24.25 38.0391 24.7188 36.6328 25.6562 35.5781L19.6875 26.3281C18.6328 27.1484 17.2266 27.5 15.9375 27.5H6.5625C2.92969 27.5 0 24.5703 0 20.9375V11.5625C0 8.04688 2.92969 5 6.5625 5H15.9375ZM15.9375 6.875H6.5625C3.86719 6.875 1.875 8.98438 1.875 11.5625V20.9375C1.875 23.6328 3.86719 25.625 6.5625 25.625H15.9375C18.5156 25.625 20.625 23.6328 20.625 20.9375V11.5625C20.625 8.98438 18.5156 6.875 15.9375 6.875ZM40.1875 34.875H30.8125C28.1172 34.875 26.125 36.9844 26.125 39.5625V48.9375C26.125 51.6328 28.1172 53.625 30.8125 53.625H40.1875C42.7656 53.625 44.875 51.6328 44.875 48.9375V39.5625C44.875 36.9844 42.7656 34.875 40.1875 34.875ZM38.875 11.5625V20.9375C38.875 23.6328 40.8672 25.625 43.5625 25.625H52.9375C55.5156 25.625 57.625 23.6328 57.625 20.9375V11.5625C57.625 8.98438 55.5156 6.875 52.9375 6.875H43.5625C40.8672 6.875 38.875 8.98438 38.875 11.5625Z" fill="#2E4D99"/>
</svg>
