<svg width="75" height="60" viewBox="0 0 75 60" fill="none" xmlns="http://www.w3.org/2000/svg">
<path d="M9.375 7.5V11.25H25.3125C25.7812 11.25 26.25 11.7188 26.25 12.1875C26.25 12.7734 25.7812 13.125 25.3125 13.125H0.9375C0.351562 13.125 0 12.7734 0 12.1875C0 11.7188 0.351562 11.25 0.9375 11.25H7.5V7.5C7.5 3.39844 10.7812 0 15 0H41.25C45.3516 0 48.75 3.39844 48.75 7.5V11.25H55.5469C56.8359 11.25 58.0078 11.8359 58.9453 12.6562L69.8438 23.5547C70.6641 24.4922 71.25 25.6641 71.25 26.9531V46.875H74.0625C74.5312 46.875 75 47.3438 75 47.8125C75 48.3984 74.5312 48.75 74.0625 48.75H67.3828C67.3828 49.1016 67.5 49.4531 67.5 49.6875C67.5 55.4297 62.8125 60 57.1875 60C51.4453 60 46.875 55.4297 46.875 49.6875C46.875 49.4531 46.875 49.1016 46.875 48.75H28.0078C28.0078 49.1016 28.125 49.4531 28.125 49.6875C28.125 55.4297 23.4375 60 17.8125 60C12.0703 60 7.5 55.4297 7.5 49.6875C7.5 49.4531 7.5 49.1016 7.5 48.75V33.75H9.375V43.8281C11.1328 41.1328 14.2969 39.375 17.8125 39.375C22.5 39.375 26.4844 42.6562 27.6562 46.875H46.875V7.5C46.875 4.45312 44.2969 1.875 41.25 1.875H15C11.8359 1.875 9.375 4.45312 9.375 7.5ZM68.9062 25.3125C68.7891 25.1953 68.6719 25.0781 68.4375 24.9609L57.5391 13.9453C57.0703 13.4766 56.3672 13.125 55.5469 13.125H48.75V25.3125H68.9062ZM48.75 27.1875V43.8281C50.5078 41.1328 53.6719 39.375 57.1875 39.375C61.875 39.375 65.8594 42.6562 67.0312 46.875H69.375V27.1875H48.75ZM17.8125 41.25C13.125 41.25 9.375 45.1172 9.375 49.6875C9.375 54.375 13.125 58.125 17.8125 58.125C22.3828 58.125 26.25 54.375 26.25 49.6875C26.25 45.1172 22.3828 41.25 17.8125 41.25ZM57.1875 58.125C61.7578 58.125 65.625 54.375 65.625 49.6875C65.625 45.1172 61.7578 41.25 57.1875 41.25C52.5 41.25 48.75 45.1172 48.75 49.6875C48.75 54.375 52.5 58.125 57.1875 58.125ZM32.8125 18.75C33.2812 18.75 33.75 19.2188 33.75 19.6875C33.75 20.2734 33.2812 20.625 32.8125 20.625H4.6875C4.10156 20.625 3.75 20.2734 3.75 19.6875C3.75 19.2188 4.10156 18.75 4.6875 18.75H32.8125ZM25.3125 26.25C25.7812 26.25 26.25 26.7188 26.25 27.1875C26.25 27.7734 25.7812 28.125 25.3125 28.125H0.9375C0.351562 28.125 0 27.7734 0 27.1875C0 26.7188 0.351562 26.25 0.9375 26.25H25.3125Z" fill="#2E4D99"/>
</svg>
