<svg width="160" height="110" viewBox="0 0 160 110" fill="none" xmlns="http://www.w3.org/2000/svg">
<path d="M72.876 108.546H87.5927V80.5298H72.876V108.546Z" fill="white"/>
<path d="M98.9004 80.5287H94.9502V99.8719H98.9004V80.5287Z" fill="white"/>
<path d="M65.5114 80.5287H61.5611V99.8719H65.5114V80.5287Z" fill="white"/>
<path d="M87.5865 1.00365H72.8698V29.0202H87.5865V1.00365Z" fill="white"/>
<path d="M98.9004 9.68233H94.9502V29.0255H98.9004V9.68233Z" fill="white"/>
<path d="M65.5114 9.68233H61.5612V29.0255H65.5114V9.68233Z" fill="white"/>
<path d="M11.2173 64.9586L10.2244 59.6344H5.52816C5.35641 60.5146 5.19003 61.4001 5.03439 62.2965C4.87337 63.1928 4.72309 64.0784 4.57818 64.9586H0.536716C1.39546 60.6756 2.24884 56.4194 3.10758 52.1848C3.96632 47.9501 4.8197 43.6939 5.67844 39.4109H10.0849L15.2588 64.9586H11.2173ZM7.77163 45.3202C7.52474 47.0806 7.26712 48.8357 6.99876 50.5853C6.7304 52.335 6.43521 54.1169 6.11855 55.9257H9.60719L7.95411 45.3148H7.77163V45.3202Z" fill="white"/>
<path d="M17.2017 64.9586V46.823H22.4132C24.4903 46.823 26.0307 47.2577 27.0182 48.1272C28.0111 48.9967 28.5049 50.2526 28.5049 51.8896C28.5049 52.6249 28.3493 53.2904 28.0487 53.8915C27.7428 54.4926 27.2705 54.9864 26.6372 55.3782L26.6747 55.4158C27.4583 55.7593 27.9897 56.2853 28.2741 56.9937C28.5532 57.7022 28.6981 58.4858 28.6981 59.3445C28.6981 61.2767 28.1722 62.699 27.1202 63.6007C26.0682 64.5077 24.4635 64.9586 22.3112 64.9586H17.2017ZM24.6191 52.1096C24.6191 51.5246 24.4635 51.0845 24.1575 50.7893C23.8462 50.4941 23.3095 50.3277 22.542 50.2741H21.168V53.9828H22.2415C23.1056 53.9828 23.7174 53.8164 24.077 53.489C24.442 53.1562 24.6191 52.7 24.6191 52.1096ZM24.8767 59.0118C24.8767 58.3731 24.705 57.8739 24.3561 57.509C24.0126 57.144 23.4061 56.9562 22.542 56.9562H21.168V61.4001H22.542C23.0626 61.4001 23.4705 61.3411 23.7657 61.2177C24.0609 61.0942 24.2971 60.9225 24.4688 60.7024C24.6406 60.4824 24.7533 60.2301 24.8016 59.951C24.8499 59.6666 24.8767 59.3553 24.8767 59.0118Z" fill="white"/>
<path d="M37.613 50.3492V64.9586H33.6466V50.3492H30.0131V46.7908H41.2841V50.3492H37.613Z" fill="white"/>
<path d="M47.306 46.5278C48.2829 46.5278 49.1094 46.6566 49.7857 46.9142C50.4565 47.1718 51.0147 47.5207 51.4548 47.9608C51.8949 48.4009 52.217 48.9162 52.4263 49.5012C52.6356 50.0862 52.7644 50.7249 52.8127 51.4119C52.9093 52.1204 52.9684 52.904 52.9791 53.7627C52.9898 54.6214 52.9952 55.405 52.9952 56.1135V57.0689C52.9952 57.6324 52.9791 58.196 52.9415 58.7595C52.904 59.3231 52.861 59.8759 52.8127 60.4126C52.6893 61.4162 52.4263 62.2374 52.0238 62.8707C51.6212 63.5094 51.1435 63.9978 50.5907 64.3413C50.0379 64.6848 49.4475 64.9156 48.8088 65.0391C48.1701 65.1625 47.5476 65.2216 46.9357 65.2216C46.077 65.2216 45.3363 65.1035 44.7137 64.8727C44.0911 64.6419 43.5651 64.3252 43.1358 63.9334C42.7064 63.5416 42.379 63.0962 42.1428 62.5917C41.912 62.0925 41.7457 61.5558 41.6491 60.9922C41.6008 60.6756 41.5578 60.3106 41.5202 59.9081C41.4827 59.5055 41.4505 59.0815 41.429 58.6414C41.4022 58.2013 41.3914 57.7559 41.3914 57.2996C41.3914 56.8488 41.3914 56.4248 41.3914 56.033C41.3914 55.4426 41.4022 54.8415 41.429 54.2135C41.4505 53.591 41.488 52.9952 41.5417 52.4316C41.59 51.8681 41.6491 51.3421 41.7242 50.8537C41.7993 50.3653 41.8959 49.9735 42.0194 49.6783C42.3629 48.7498 42.9747 47.9876 43.855 47.4026C44.7352 46.823 45.8837 46.5278 47.306 46.5278ZM47.2846 50.1989C46.7049 50.1989 46.2648 50.419 45.975 50.8591C45.8032 51.1543 45.6798 51.4709 45.5939 51.8144C45.508 52.1579 45.449 52.5497 45.4114 52.9898C45.3739 53.4299 45.3578 53.9237 45.3578 54.4765C45.3578 55.0293 45.3578 55.6573 45.3578 56.3658V56.661C45.3578 57.3211 45.3631 57.9598 45.3792 58.5717C45.39 59.1835 45.4436 59.6719 45.5456 60.0423C45.6637 60.4609 45.8623 60.8098 46.1253 61.0889C46.3936 61.3733 46.7801 61.5129 47.2899 61.5129C47.6764 61.5129 48.0091 61.4001 48.2882 61.164C48.5673 60.9332 48.7552 60.6434 48.8518 60.2999C48.8786 60.2033 48.9054 60.0101 48.943 59.731C48.9806 59.4519 49.0074 59.1084 49.0343 58.7005C49.0557 58.2979 49.0772 57.8632 49.0879 57.3963C49.0987 56.9347 49.104 56.4677 49.104 56.0008C49.104 55.1474 49.0933 54.3101 49.0665 53.5051C49.0396 52.7 48.9806 52.0881 48.884 51.6695C48.8357 51.4012 48.7498 51.1811 48.6317 51.0094C48.3634 50.4726 47.9125 50.1989 47.2846 50.1989Z" fill="white"/>
<path d="M63.2733 64.9586V57.2889H59.7524V64.9586H55.7861V46.823H59.7524V54.1277H63.2733V46.823H67.2396V64.9586H63.2733Z" fill="white"/>
<path d="M75.972 46.5278C76.9488 46.5278 77.7753 46.6566 78.4516 46.9142C79.1225 47.1718 79.6807 47.5207 80.1208 47.9608C80.5609 48.4009 80.8829 48.9162 81.0922 49.5012C81.3015 50.0862 81.4304 50.7249 81.4787 51.4119C81.5753 52.1204 81.6343 52.904 81.645 53.7627C81.6558 54.6214 81.6611 55.405 81.6611 56.1135V57.0689C81.6611 57.6324 81.645 58.196 81.6075 58.7595C81.5699 59.3231 81.527 59.8759 81.4787 60.4126C81.3552 61.4162 81.0922 62.2374 80.6897 62.8707C80.2871 63.5094 79.8095 63.9978 79.2567 64.3413C78.7038 64.6848 78.1135 64.9156 77.4748 65.0391C76.8361 65.1625 76.2135 65.2216 75.6016 65.2216C74.7429 65.2216 74.0022 65.1035 73.3796 64.8727C72.757 64.6419 72.2311 64.3252 71.8017 63.9334C71.3723 63.5416 71.0449 63.0962 70.8088 62.5917C70.578 62.0925 70.4116 61.5558 70.315 60.9922C70.2667 60.6756 70.2238 60.3106 70.1862 59.9081C70.1486 59.5055 70.1164 59.0815 70.0949 58.6414C70.0681 58.2013 70.0574 57.7559 70.0574 57.2996C70.0574 56.8488 70.0574 56.4248 70.0574 56.033C70.0574 55.4426 70.0681 54.8415 70.0949 54.2135C70.1164 53.591 70.154 52.9952 70.2076 52.4316C70.256 51.8681 70.315 51.3421 70.3901 50.8537C70.4653 50.3653 70.5619 49.9735 70.6853 49.6783C71.0288 48.7498 71.6407 47.9876 72.5209 47.4026C73.4011 46.823 74.555 46.5278 75.972 46.5278ZM75.9559 50.1989C75.3762 50.1989 74.9361 50.419 74.6463 50.8591C74.4745 51.1543 74.3511 51.4709 74.2652 51.8144C74.1793 52.1579 74.1203 52.5497 74.0827 52.9898C74.0452 53.4299 74.0291 53.9237 74.0291 54.4765C74.0291 55.0293 74.0291 55.6573 74.0291 56.3658V56.661C74.0291 57.3211 74.0344 57.9598 74.0505 58.5717C74.0613 59.1835 74.1149 59.6719 74.2169 60.0423C74.335 60.4609 74.5336 60.8098 74.7966 61.0889C75.0649 61.3733 75.4513 61.5129 75.9612 61.5129C76.3477 61.5129 76.6804 61.4001 76.9595 61.164C77.2386 60.9332 77.4265 60.6434 77.5231 60.2999C77.5499 60.2033 77.5767 60.0101 77.6143 59.731C77.6519 59.4519 77.6787 59.1084 77.7056 58.7005C77.727 58.2979 77.7485 57.8632 77.7592 57.3963C77.77 56.9347 77.7753 56.4677 77.7753 56.0008C77.7753 55.1474 77.7646 54.3101 77.7378 53.5051C77.7109 52.7 77.6519 52.0881 77.5553 51.6695C77.507 51.4012 77.4211 51.1811 77.303 51.0094C77.0293 50.4726 76.5838 50.1989 75.9559 50.1989Z" fill="white"/>
<path d="M96.1632 55.2655L95.0575 57.8364L93.5064 61.105H91.1449L89.5938 57.8739L88.4881 55.4533H88.3754V64.9639H84.4091V46.7854H88.1554L92.3042 55.5607H92.3793L93.9948 52.072L96.5281 46.7854H100.274V64.9586H96.2383V55.2655H96.1632Z" fill="white"/>
<path d="M112.903 64.9586L111.91 59.6344H107.214C107.042 60.5146 106.876 61.4001 106.72 62.2965C106.559 63.1928 106.409 64.0784 106.264 64.9586H102.228C103.087 60.6756 103.94 56.4194 104.799 52.1848C105.658 47.9501 106.511 43.6939 107.37 39.4109H111.776L116.95 64.9586H112.903ZM109.452 45.3202C109.205 47.0806 108.948 48.8357 108.679 50.5853C108.411 52.335 108.116 54.1169 107.799 55.9257H111.288L109.635 45.3148H109.452V45.3202Z" fill="white"/>
<path d="M118.705 64.9586V46.8605H122.672V54.2404H123.482C123.75 54.2404 124.019 54.2189 124.287 54.1652C124.555 54.1169 124.813 53.9989 125.06 53.8164C125.307 53.6339 125.527 53.3655 125.72 53.0059C125.913 52.6517 126.074 52.1794 126.198 51.5944L127.298 46.823H131.044C130.824 47.7032 130.61 48.5834 130.4 49.4636C130.191 50.3438 129.992 51.224 129.794 52.1043C129.595 52.963 129.284 53.6876 128.86 54.2887C128.43 54.8898 127.899 55.287 127.26 55.4802V55.5553C128.071 55.7539 128.661 56.1725 129.042 56.822C129.418 57.4714 129.719 58.2335 129.939 59.1137L131.372 64.9532H127.48L126.488 60.3267C126.364 59.7149 126.225 59.2265 126.064 58.8561C125.903 58.4912 125.715 58.2067 125.495 58.0135C125.275 57.8203 125.022 57.6861 124.743 57.6109C124.459 57.5358 124.137 57.5036 123.772 57.5036H122.672V64.9532H118.705V64.9586Z" fill="white"/>
<path d="M133.347 64.9586V46.823H138.558C140.635 46.823 142.176 47.2577 143.163 48.1272C144.156 48.9967 144.65 50.2526 144.65 51.8896C144.65 52.6249 144.494 53.2904 144.194 53.8915C143.888 54.4926 143.416 54.9864 142.782 55.3782L142.82 55.4158C143.603 55.7593 144.135 56.2853 144.419 56.9937C144.698 57.7022 144.843 58.4858 144.843 59.3445C144.843 61.2767 144.317 62.699 143.265 63.6007C142.213 64.5077 140.609 64.9586 138.456 64.9586H133.347ZM140.764 52.1096C140.764 51.5246 140.609 51.0845 140.303 50.7893C139.991 50.4941 139.455 50.3277 138.687 50.2741H137.313V53.9828H138.387C139.251 53.9828 139.862 53.8164 140.222 53.489C140.587 53.1562 140.764 52.7 140.764 52.1096ZM141.022 59.0118C141.022 58.3731 140.85 57.8739 140.501 57.509C140.158 57.144 139.551 56.9562 138.687 56.9562H137.313V61.4001H138.687C139.208 61.4001 139.616 61.3411 139.911 61.2177C140.206 61.0942 140.442 60.9225 140.614 60.7024C140.786 60.4824 140.898 60.2301 140.947 59.951C140.995 59.6666 141.022 59.3553 141.022 59.0118Z" fill="white"/>
<path d="M154.826 63.5255C154.434 64.0891 153.946 64.5024 153.355 64.7761C152.765 65.0444 152.143 65.1786 151.482 65.1786C150.672 65.1786 149.996 65.0337 149.443 64.7385C148.89 64.4433 148.45 64.0462 148.123 63.547C147.79 63.0479 147.559 62.4628 147.425 61.8027C147.291 61.1425 147.221 60.4341 147.221 59.6719C147.221 58.9635 147.312 58.2657 147.495 57.5787C147.677 56.8917 147.978 56.2853 148.396 55.7593C148.81 55.2333 149.362 54.8039 150.049 54.4765C150.736 54.1491 151.59 53.9828 152.62 53.9828H154.933V52.0023C154.933 51.4656 154.805 51.0416 154.547 50.7356C154.289 50.4297 153.806 50.2741 153.098 50.2741C152.733 50.2741 152.363 50.3975 151.998 50.639C151.633 50.8859 151.386 51.326 151.262 51.9593L147.666 50.8591C147.983 49.5119 148.627 48.46 149.593 47.7032C150.559 46.9464 151.81 46.5654 153.345 46.5654C155.17 46.5654 156.554 46.984 157.488 47.8159C158.422 48.6478 158.894 50.0433 158.894 52.0023V64.9586H154.928V63.5631L154.826 63.5255ZM153.355 56.9562C152.792 56.9562 152.277 57.1386 151.815 57.509C151.348 57.8793 151.117 58.5341 151.117 59.4733C151.117 60.112 151.284 60.6058 151.611 60.9547C151.944 61.2982 152.389 61.4753 152.953 61.4753C153.592 61.4753 154.08 61.2713 154.424 60.8634C154.767 60.4555 154.939 59.9081 154.939 59.2157V56.9562H153.355Z" fill="white"/>
</svg>
