<svg width="60" height="60" viewBox="0 0 60 60" fill="none" xmlns="http://www.w3.org/2000/svg">
<path d="M47.8125 17.125C48.2812 17.125 48.75 17.5938 48.75 18.0625C48.75 18.6484 48.2812 19 47.8125 19H12.1875C11.6016 19 11.25 18.6484 11.25 18.0625C11.25 17.5938 11.6016 17.125 12.1875 17.125H47.8125ZM0 4.9375C0 4.46875 0.351562 4 0.9375 4H59.0625C59.5312 4 60 4.46875 60 4.9375C60 5.52344 59.5312 5.875 59.0625 5.875H56.25V54.625H59.0625C59.5312 54.625 60 55.0938 60 55.5625C60 56.1484 59.5312 56.5 59.0625 56.5H41.25V41.5C41.25 35.2891 36.2109 30.25 30 30.25C23.6719 30.25 18.75 35.2891 18.75 41.5V56.5H0.9375C0.351562 56.5 0 56.1484 0 55.5625C0 55.0938 0.351562 54.625 0.9375 54.625H3.75V5.875H0.9375C0.351562 5.875 0 5.52344 0 4.9375ZM5.625 54.625H16.875V41.5C16.875 34.3516 22.7344 28.375 30 28.375C37.1484 28.375 43.125 34.3516 43.125 41.5V54.625H54.375V5.875H5.625V54.625Z" fill="#2E4D99"/>
</svg>
