<svg width="60" height="60" viewBox="0 0 60 60" fill="none" xmlns="http://www.w3.org/2000/svg">
<path d="M26.9913 42.2634C27.4596 40.8585 27.4596 40.8585 28.3962 39.8049L28.7474 39.4537C29.801 38.4 30.2693 36.878 29.801 35.3561V35.122C29.5669 34.5366 29.4498 34.0683 29.4498 33.8341C29.4498 33.4829 29.5669 33.0146 29.801 32.4293V32.1951C30.2693 30.6732 29.801 29.1512 28.7474 28.0976L28.5132 27.8634C27.4596 26.6927 27.4596 26.6927 26.9913 25.2878L26.8742 24.8195C26.523 23.4146 25.4693 22.2439 24.0645 21.8927L23.5962 21.7756C22.1913 21.4244 22.1913 21.4244 21.1376 20.3707L20.7864 20.0195C19.7327 18.9659 18.2108 18.4976 16.8059 18.9659L16.4547 19.0829C14.9327 19.4341 14.9327 19.4341 13.5279 19.0829L13.1766 18.9659C11.7718 18.4976 10.2498 18.9659 9.19616 20.0195L8.84494 20.3707C7.79128 21.4244 7.79128 21.4244 6.3864 21.7756L6.03518 21.8927C4.51323 22.2439 3.45957 23.4146 3.10835 24.8195L2.99128 25.2878C2.52299 26.6927 2.52299 26.6927 1.5864 27.7463L1.23518 28.0976C0.181524 29.1512 -0.286769 30.6732 0.181524 32.1951V32.4293C0.41567 33.1317 0.532744 33.4829 0.532744 33.7171C0.532744 34.0683 0.41567 34.4195 0.181524 35.122V35.3561C-0.286769 36.878 0.181524 38.4 1.23518 39.4537L1.46933 39.6878C2.52299 40.8585 2.52299 40.8585 2.99128 42.2634L3.10835 42.7317C3.45957 44.1366 4.51323 45.3073 6.03518 45.6585L6.3864 45.7756C6.97177 45.8927 7.20591 46.0098 7.55713 46.1268V59.0049C7.55713 59.3561 7.67421 59.7073 7.90835 59.8244C8.1425 59.9415 8.25957 59.9415 8.49372 59.9415C8.61079 59.9415 8.72787 59.9415 8.84494 59.8244L15.0498 56.4293L21.1376 59.8244C21.3718 60.0585 21.723 60.0585 22.0742 59.8244C22.3084 59.7073 22.4254 59.3561 22.4254 59.0049L22.5425 46.1268C22.7766 46.0098 23.0108 45.8927 23.5962 45.7756L24.0645 45.6585C25.4693 45.3073 26.523 44.1366 26.8742 42.7317L26.9913 42.2634ZM20.5523 57.4829L15.401 54.5561C15.0498 54.322 14.6986 54.322 14.4645 54.5561L9.31323 57.4829V47.6488C10.2498 48.5854 11.7718 48.9366 13.0596 48.5854L13.5279 48.4683C14.9327 48.1171 14.9327 48.1171 16.3376 48.4683L16.6888 48.5854C17.0401 48.7024 17.3913 48.8195 17.7425 48.8195C18.7962 48.8195 19.7327 48.3512 20.5523 47.6488V57.4829ZM25.2352 41.7951L25.1181 42.2634C24.884 42.9659 24.2986 43.6683 23.4791 43.9024L23.1279 44.0195C21.2547 44.4878 21.1376 44.6049 19.8498 45.8927L19.4986 46.2439C18.9132 46.8293 18.0937 47.0634 17.2742 46.8293L16.923 46.7122C15.9864 46.4781 15.5181 46.361 15.0498 46.361C14.4645 46.361 13.9962 46.4781 13.0596 46.7122L12.7084 46.8293C11.8888 47.0634 11.0693 46.8293 10.484 46.2439L10.2498 45.8927C8.84494 44.6049 8.72787 44.4878 6.85469 44.0195L6.50348 43.9024C5.68396 43.6683 5.0986 42.9659 4.86445 42.1463L4.74738 41.7951C4.27908 39.922 4.16201 39.8049 2.87421 38.4L2.52299 38.1659C1.93762 37.5805 1.70348 36.6439 1.93762 35.8244L2.05469 35.5902C2.28884 34.7707 2.40591 34.3024 2.40591 33.7171C2.40591 33.2488 2.28884 32.7805 2.05469 31.961L1.93762 31.7268C1.70348 30.9073 1.93762 29.9707 2.52299 29.3854L2.87421 29.1512C4.16201 27.7463 4.27908 27.6293 4.74738 25.7561L4.86445 25.2878C5.0986 24.5854 5.68396 23.8829 6.50348 23.6488L6.85469 23.5317C8.72787 23.0634 8.84494 22.9463 10.1327 21.6585L10.484 21.3073C11.0693 20.722 11.8888 20.4878 12.7084 20.722L13.0596 20.839C14.9327 21.3073 15.0498 21.3073 16.923 20.839L17.2742 20.722C18.0937 20.4878 18.9132 20.722 19.4986 21.3073L19.8498 21.6585C21.1376 22.9463 21.2547 23.0634 23.1279 23.5317L23.4791 23.6488C24.2986 23.8829 24.884 24.5854 25.1181 25.2878L25.2352 25.7561C25.7035 27.6293 25.8205 27.7463 27.1084 29.1512L27.4596 29.3854C28.0449 29.9707 28.2791 30.9073 28.0449 31.7268L27.9279 31.961C27.6937 32.7805 27.5766 33.2488 27.5766 33.7171C27.5766 34.3024 27.6937 34.7707 27.9279 35.5902L28.0449 35.8244C28.2791 36.6439 28.0449 37.5805 27.4596 38.1659L27.1084 38.4C25.8205 39.8049 25.7035 39.922 25.2352 41.7951ZM58.8352 17.678L42.3279 1.17073C41.6254 0.468293 40.6888 0 39.6352 0H22.4254C18.2108 0 14.9327 3.39512 14.9327 7.49268V14.0488C14.9327 14.5171 15.284 14.9854 15.8693 14.9854C16.3376 14.9854 16.8059 14.5171 16.8059 14.0488V7.49268C16.8059 4.33171 19.2645 1.87317 22.4254 1.87317H39.284V15.8049C39.284 18.3805 41.3913 20.4878 43.9669 20.4878H58.0157V52.3317C58.0157 55.3756 55.4401 57.9512 52.3962 57.9512H27.2254C26.6401 57.9512 26.1718 58.3024 26.1718 58.8878C26.1718 59.3561 26.6401 59.8244 27.2254 59.8244H52.3962C56.4937 59.8244 59.8888 56.4293 59.8888 52.3317V20.3707C60.0059 19.3171 59.5376 18.3805 58.8352 17.678ZM43.9669 18.7317C42.3279 18.7317 41.1571 17.4439 41.1571 15.922V2.69268L57.1962 18.8488H43.9669V18.7317Z" fill="#2E4D99"/>
</svg>
