<svg width="60" height="60" viewBox="0 0 60 60" fill="none" xmlns="http://www.w3.org/2000/svg">
<path d="M56.25 20.25C54.1406 20.25 52.5 22.0078 52.5 24H30.9375V14.8594L46.5234 17.4375C47.1094 17.5547 47.5781 17.4375 48.0469 17.0859C48.3984 16.7344 48.75 16.1484 48.75 15.5625V9.9375C48.75 9.46875 48.3984 8.88281 48.0469 8.53125C47.5781 8.17969 47.1094 8.0625 46.5234 8.17969L30.9375 10.7578V6.1875C30.9375 5.71875 30.4688 5.25 30 5.25C29.4141 5.25 29.0625 5.71875 29.0625 6.1875V10.7578L13.3594 8.17969C12.7734 8.0625 12.3047 8.17969 11.8359 8.53125C11.4844 8.88281 11.25 9.46875 11.25 9.9375V15.5625C11.25 16.1484 11.4844 16.7344 11.8359 17.0859C12.3047 17.4375 12.7734 17.5547 13.3594 17.4375L29.0625 14.8594V24H7.5C7.5 22.0078 5.74219 20.25 3.75 20.25C1.64062 20.25 0 22.0078 0 24V54C0 56.1094 1.64062 57.75 3.75 57.75C5.74219 57.75 7.5 56.1094 7.5 54H52.5C52.5 56.1094 54.1406 57.75 56.25 57.75C58.2422 57.75 60 56.1094 60 54V24C60 22.0078 58.2422 20.25 56.25 20.25ZM30.9375 12.6328L35.625 11.8125L45 10.2891L46.875 9.9375V15.5625L45 15.3281L35.625 13.8047L30.9375 12.9844V12.6328ZM5.625 54C5.625 55.0547 4.6875 55.875 3.75 55.875C2.69531 55.875 1.875 55.0547 1.875 54V24C1.875 23.0625 2.69531 22.125 3.75 22.125C4.6875 22.125 5.625 23.0625 5.625 24V54ZM24.2578 13.8047L15 15.3281L13.125 15.5625V9.9375L15 10.2891L24.2578 11.8125L29.0625 12.6328V12.9844L24.2578 13.8047ZM52.5 52.125H7.5V25.875H52.5V52.125ZM58.125 54C58.125 55.0547 57.1875 55.875 56.25 55.875C55.1953 55.875 54.375 55.0547 54.375 54V24C54.375 23.0625 55.1953 22.125 56.25 22.125C57.1875 22.125 58.125 23.0625 58.125 24V54Z" fill="#2E4D99"/>
</svg>
