<svg width="60" height="60" viewBox="0 0 60 60" fill="none" xmlns="http://www.w3.org/2000/svg">
<path d="M30 0C13.4766 0 0 13.4766 0 30C0 46.6406 13.4766 60 30 60C39.2578 60 47.4609 55.8984 52.9688 49.4531C53.3203 48.9844 53.3203 48.3984 52.8516 48.0469C52.5 47.6953 51.9141 47.8125 51.5625 48.1641C46.4062 54.2578 38.6719 58.125 30 58.125C14.5312 58.125 1.875 45.5859 1.875 30C1.875 14.5312 14.5312 1.875 30 1.875C42.3047 1.875 52.7344 9.72656 56.6016 20.625H44.0625C43.5938 20.625 43.125 21.0938 43.125 21.5625C43.125 22.1484 43.5938 22.5 44.0625 22.5H59.0625C59.6484 22.5 60 22.1484 60 21.5625V6.5625C60 6.09375 59.6484 5.625 59.0625 5.625C58.5938 5.625 58.125 6.09375 58.125 6.5625V19.5703C53.9062 8.20312 42.8906 0 30 0ZM30 15C29.5312 15 29.0625 15.4688 29.0625 15.9375V29.6484L19.1016 39.7266C18.75 40.0781 18.75 40.6641 19.1016 41.0156C19.4531 41.3672 20.0391 41.3672 20.3906 41.0156L30.7031 30.7031C30.9375 30.5859 30.9375 30.3516 30.9375 30V15.9375C30.9375 15.4688 30.5859 15 30 15Z" fill="#2E4D99"/>
</svg>
