<svg width="580" height="386" viewBox="0 0 580 386" fill="none" xmlns="http://www.w3.org/2000/svg">
<g clip-path="url(#clip0_145_2005)">
<path d="M293.823 108.246C288.652 99.6926 282.524 90.5601 272.926 87.7672C261.812 84.5329 250.395 90.958 240.711 97.2984C211.75 116.26 183.86 136.809 157.168 158.852L157.197 159.184C177.978 157.751 198.758 156.318 219.538 154.885C234.552 153.849 250.082 152.671 263.35 145.569C268.385 142.874 273.293 139.274 278.998 139.023C286.086 138.711 292.267 143.661 297.124 148.833C325.854 179.428 334.168 226.214 366.401 253.093C346.076 202.968 321.807 154.534 293.823 108.246Z" fill="#F2F2F2"/>
<path d="M470.425 367.742C467.248 363.73 465.95 362.79 462.816 358.741C437.298 325.737 413.313 291.619 390.861 256.385C375.611 232.456 361.117 208.067 347.379 183.219C340.839 171.406 334.478 159.5 328.296 147.501C323.499 138.198 318.81 128.839 314.227 119.424C312.916 116.735 311.643 114.034 310.376 111.326C307.39 104.959 304.46 98.5612 301.313 92.2806C297.728 85.1223 293.364 77.6177 286.78 72.8084C283.784 70.5299 280.201 69.1512 276.451 68.8336C271.091 68.4874 266.146 70.7005 261.497 73.1175C227.486 90.8526 195.644 113.088 166.844 138.39C137.97 163.748 112.161 192.397 89.9436 223.752C89.2639 224.723 87.6566 223.796 88.3427 222.819C91.0441 218.999 93.7991 215.219 96.6076 211.482C131.53 165.036 174.349 125.096 223.109 93.486C231.312 88.1698 239.67 83.1029 248.182 78.2853C252.472 75.8559 256.781 73.4574 261.163 71.2073C265.46 69.0005 270.022 67.0161 274.93 66.942C291.633 66.6824 300.281 85.5982 306.222 98.3263C308.088 102.332 309.978 106.325 311.89 110.306C319.116 125.42 326.621 140.397 334.404 155.235C339.207 164.396 344.115 173.504 349.129 182.558C364.731 210.752 381.314 238.376 398.879 265.429C422.146 301.264 445.229 332.92 471.736 366.431C472.465 367.358 471.161 368.681 470.425 367.742Z" fill="#F0F1F2"/>
<path d="M165.196 129.049C164.226 127.967 163.261 126.886 162.285 125.804C154.582 117.285 146.318 108.866 135.74 103.982C130.697 101.58 125.192 100.304 119.606 100.243C113.833 100.261 108.189 101.776 102.854 103.896C100.332 104.904 97.8654 106.047 95.4362 107.265C92.6605 108.662 89.9343 110.152 87.2208 111.654C82.1269 114.473 77.0992 117.415 72.1376 120.481C62.2653 126.583 52.7022 133.15 43.4484 140.182C38.6512 143.829 33.9531 147.596 29.354 151.482C25.0763 155.092 20.8852 158.799 16.7806 162.603C15.9028 163.413 14.5922 162.102 15.47 161.293C16.5518 160.285 17.6459 159.284 18.7401 158.295C21.8309 155.5 24.9713 152.76 28.1611 150.073C33.9779 145.165 39.9452 140.446 46.0632 135.917C55.5769 128.87 65.418 122.301 75.5867 116.21C80.6682 113.168 85.8195 110.255 91.0408 107.469C92.6173 106.628 94.2123 105.806 95.8256 105.027C99.4864 103.181 103.29 101.632 107.2 100.397C112.738 98.6055 118.598 98.0299 124.379 98.7095C129.96 99.5214 135.338 101.382 140.229 104.193C150.614 109.997 158.668 118.973 166.507 127.732C167.298 128.623 165.994 129.939 165.196 129.049Z" fill="#F0F1F2"/>
<path d="M377.983 217.322L402.868 208.22L415.224 203.701C419.248 202.229 423.262 200.553 427.422 199.499C431.037 198.467 434.876 198.516 438.463 199.64C441.663 200.824 444.591 202.64 447.075 204.978C449.612 207.315 451.973 209.836 454.138 212.522C456.828 215.754 459.479 219.021 462.141 222.277C473.128 235.714 484.044 249.21 494.888 262.764C505.731 276.317 516.502 289.929 527.201 303.598C537.926 317.3 548.576 331.059 559.154 344.876C560.449 346.569 561.744 348.262 563.037 349.957C563.752 350.893 565.363 349.97 564.639 349.021C553.984 335.065 543.254 321.166 532.45 307.325C521.62 293.45 510.715 279.634 499.735 265.877C488.755 252.121 477.701 238.424 466.573 224.786C463.801 221.389 461.024 217.995 458.242 214.605C455.896 211.745 453.576 208.855 451.003 206.193C446.279 201.308 440.377 196.99 433.312 196.873C429.159 196.804 425.139 198.122 421.28 199.519C417.12 201.024 412.969 202.557 408.814 204.076L383.755 213.242L377.49 215.533C376.378 215.94 376.859 217.733 377.983 217.322L377.983 217.322Z" fill="#F0F1F2"/>
<path d="M132.462 114.701C119.816 108.202 103.621 109.475 92 117.595C114.166 121.419 136.09 126.536 157.658 132.919C148.702 127.67 141.696 119.447 132.462 114.701Z" fill="#F2F2F2"/>
<path d="M91.876 117.572L89.4414 119.551C90.2649 118.859 91.121 118.209 92.0004 117.595C91.9589 117.588 91.9175 117.579 91.876 117.572Z" fill="#F2F2F2"/>
<path d="M446.136 217.413C443.687 214.431 441.038 211.309 437.374 210.097L433.953 210.232C459.994 256.247 495.163 296.454 537.304 328.386C506.914 291.395 476.525 254.404 446.136 217.413Z" fill="#F2F2F2"/>
<path d="M233.414 192.814C234.997 198.566 238.564 203.572 243.483 206.947C245.384 208.242 247.634 209.484 248.285 211.69C248.627 213.097 248.416 214.582 247.696 215.837C246.976 217.077 246.101 218.22 245.092 219.237L245 219.582C240.281 216.786 235.791 213.248 233.184 208.421C230.577 203.595 230.213 197.269 233.414 192.814" fill="#F2F2F2"/>
<path d="M390.531 329.7C392.114 335.452 395.681 340.458 400.6 343.833C402.501 345.128 404.751 346.37 405.402 348.577C405.744 349.983 405.533 351.468 404.813 352.723C404.094 353.963 403.219 355.106 402.209 356.123L402.117 356.468C397.398 353.672 392.908 350.134 390.301 345.307C387.695 340.481 387.331 334.155 390.531 329.7" fill="#F2F2F2"/>
<path d="M76.9728 320.26C78.5559 326.011 82.1223 331.017 87.0411 334.393C88.9428 335.687 91.1927 336.929 91.8433 339.136C92.1855 340.543 91.9746 342.027 91.2542 343.283C90.535 344.523 89.66 345.665 88.6505 346.683L88.5583 347.028C83.8392 344.231 79.3496 340.694 76.7428 335.867C74.136 331.04 73.7721 324.715 76.9728 320.26" fill="#F2F2F2"/>
<path d="M437.796 68.7802C456.789 68.7802 472.186 53.3832 472.186 34.3901C472.186 15.397 456.789 0 437.796 0C418.803 0 403.406 15.397 403.406 34.3901C403.406 53.3832 418.803 68.7802 437.796 68.7802Z" fill="#2E4D99"/>
<path d="M499.861 8.0044C483.195 5.75156 464.167 14.7602 459.847 31.0144C458.758 28.1244 456.779 25.6553 454.195 23.9638C451.611 22.2723 448.557 21.446 445.472 21.6043C442.388 21.7625 439.434 22.8972 437.037 24.8443C434.64 26.7914 432.924 29.4501 432.137 32.4364L434.045 33.803C469.762 41.5268 506.734 41.3596 542.38 33.3132C530.786 21.129 516.528 10.2572 499.861 8.0044Z" fill="#F0F0F0"/>
<path d="M428.381 53.8578C411.714 51.6049 392.686 60.6136 388.366 76.8678C387.278 73.9778 385.298 71.5087 382.715 69.8172C380.131 68.1257 377.076 67.2994 373.992 67.4577C370.908 67.6159 367.954 68.7506 365.557 70.6977C363.159 72.6448 361.443 75.3035 360.656 78.2898L362.564 79.6564C398.281 87.3802 435.254 87.213 470.899 79.1666C459.306 66.9824 445.048 56.1106 428.381 53.8578Z" fill="#F0F0F0"/>
<path d="M573.851 62.5281C573.782 62.5282 573.713 62.5176 573.647 62.4965C395.354 6.11147 238.213 13.4848 137.783 29.5992C124.116 31.7914 110.412 34.3234 97.0521 37.1254C93.6414 37.8398 90.1029 38.6057 86.535 39.4032C82.2742 40.3521 78.0699 41.3293 74.0385 42.3065C72.2974 42.7188 70.5903 43.1343 68.9172 43.5531C66.3829 44.1787 63.8115 44.8306 61.0549 45.547C57.9748 46.3412 54.8452 47.1742 51.7512 48.0231C51.7398 48.027 51.7283 48.0303 51.7166 48.0329L51.7169 48.0336C48.2222 48.9878 44.7459 49.9696 41.3842 50.9502C39.5647 51.4757 37.8078 51.9939 36.125 52.5056C35.937 52.5576 35.7704 52.6076 35.6015 52.659L35.24 52.769C35.0306 52.8328 34.8238 52.8954 34.617 52.9547L34.6039 52.9586L34.6042 52.9593L34.0569 53.1292C33.4044 53.3268 32.7676 53.5197 32.1413 53.712C15.5903 58.8142 6.49166 62.4439 6.40177 62.4794C6.31958 62.5124 6.2317 62.5288 6.14315 62.5278C6.05461 62.5268 5.96713 62.5083 5.88571 62.4735C5.80429 62.4387 5.73052 62.3882 5.66862 62.3248C5.60673 62.2615 5.55791 62.1866 5.52497 62.1044C5.49202 62.0222 5.47559 61.9343 5.47661 61.8458C5.47762 61.7572 5.49607 61.6698 5.53089 61.5883C5.56572 61.5069 5.61623 61.4331 5.67956 61.3712C5.74289 61.3094 5.81779 61.2605 5.89999 61.2276C5.99054 61.192 15.1336 57.5439 31.7449 52.4226C32.3735 52.2297 33.0119 52.0368 33.6665 51.8385L34.1748 51.6805C34.1923 51.6739 34.2097 51.6686 34.2275 51.6634C34.4333 51.6048 34.6387 51.5422 34.8475 51.479L35.2097 51.369C35.3901 51.3144 35.5679 51.2604 35.75 51.2103C37.4213 50.7019 39.1841 50.1824 41.0082 49.6549C44.3712 48.6737 47.8508 47.6919 51.3482 46.7364C51.359 46.7324 51.3702 46.7298 51.3811 46.7265V46.7258C54.486 45.8744 57.6271 45.0381 60.7171 44.2413C63.4779 43.5242 66.0543 42.8709 68.5929 42.244C70.2731 41.8259 71.9835 41.4095 73.724 40.9948C77.7601 40.0163 81.9729 39.0377 86.2414 38.0868C89.8148 37.2887 93.3592 36.5209 96.7756 35.8057C110.156 32.9992 123.882 30.4632 137.57 28.2678C238.143 12.1303 395.509 4.74504 574.054 61.2111C574.207 61.2595 574.338 61.3613 574.423 61.4981C574.508 61.6348 574.542 61.7974 574.517 61.9566C574.493 62.1157 574.412 62.2608 574.29 62.3656C574.168 62.4704 574.012 62.5281 573.851 62.5281Z" fill="#F0F1F2"/>
<path d="M177.336 283.105C177.102 282.422 176.709 281.805 176.189 281.304C175.998 281.126 175.79 280.966 175.569 280.825C173.809 279.652 171.179 279.389 169.507 280.825C169.339 280.972 169.183 281.132 169.042 281.304C168.543 281.918 168.03 282.518 167.504 283.105C166.641 284.089 165.758 285.04 164.834 285.964C164.571 286.22 164.308 286.483 164.038 286.739C163.883 286.894 163.728 287.043 163.573 287.191C162.98 287.757 162.373 288.304 161.759 288.843C161.435 289.133 161.112 289.416 160.781 289.693C160.289 290.104 159.797 290.515 159.298 290.913C159.251 290.947 159.203 290.981 159.156 291.021C159.143 291.028 159.136 291.041 159.123 291.048C159.116 291.048 159.109 291.048 159.102 291.062C159.084 291.069 159.068 291.08 159.055 291.095C158.907 291.196 158.806 291.264 158.731 291.325C158.758 291.311 158.785 291.291 158.812 291.277C158.691 291.372 158.563 291.466 158.441 291.561C157.261 292.43 156.054 293.267 154.82 294.049C151.767 296.003 148.561 297.705 145.232 299.14C145.009 299.228 144.78 299.322 144.551 299.41C135.835 302.98 126.38 304.374 117.005 303.469C116.047 303.395 115.09 303.294 114.132 303.166C113.026 303.004 111.927 302.808 110.835 302.586C106.676 301.756 102.607 300.527 98.6836 298.917C93.776 296.67 89.1085 293.932 84.7522 290.745C84.0779 290.266 83.3969 289.787 82.7158 289.322C83.4913 287.42 84.2533 285.519 84.995 283.604C85.3659 282.68 85.7233 281.756 86.0739 280.825C88.8319 273.657 91.4212 266.422 93.9027 259.16C96.4112 251.803 98.778 244.403 101.003 236.961C101.233 236.206 101.455 235.451 101.671 234.696C102.837 230.764 103.957 226.824 105.029 222.875C105.13 222.49 105.238 222.113 105.332 221.728C105.643 220.596 105.946 219.463 106.243 218.33C106.917 215.774 105.393 212.72 102.709 212.106C101.417 211.775 100.047 211.958 98.887 212.617C97.7273 213.276 96.8687 214.36 96.4921 215.639C96.2021 216.732 95.9122 217.817 95.6155 218.91C94.1927 224.19 92.6957 229.452 91.1245 234.696C90.8953 235.451 90.666 236.206 90.4367 236.961C86.9708 248.384 83.1654 259.692 79.0206 270.886C78.5216 272.241 78.0158 273.592 77.5033 274.939C77.2539 275.6 77.0044 276.26 76.7481 276.921C76.2559 278.223 75.7501 279.524 75.2444 280.825C74.9544 281.587 74.6577 282.349 74.3611 283.105C74.1655 283.583 73.9767 284.062 73.7879 284.534C71.8653 283.844 69.8733 283.365 67.8472 283.105L67.5235 283.064C65.9526 282.875 64.3639 282.889 62.7965 283.105C60.4506 283.378 58.1935 284.164 56.1847 285.406C54.1759 286.648 52.4644 288.316 51.1713 290.293C47.9548 295.357 47.9953 302.599 52.5065 306.901C57.1525 311.332 64.1856 311.298 69.6543 308.526C72.5524 306.958 74.996 304.668 76.7481 301.878C77.4194 300.866 78.0361 299.819 78.5958 298.742C78.7374 298.836 78.879 298.931 79.0206 299.032C79.56 299.41 80.0995 299.794 80.6322 300.172C83.7361 302.42 87.007 304.429 90.4165 306.18C97.7476 309.824 105.639 312.211 113.761 313.24C113.943 313.26 114.119 313.287 114.301 313.307C115.198 313.422 116.101 313.51 117.005 313.584C129.967 314.561 142.944 311.908 154.483 305.923C155.461 305.418 156.43 304.887 157.39 304.332C158.88 303.469 160.336 302.552 161.759 301.581C162.535 301.055 163.29 300.522 164.038 299.963C167.309 297.553 170.358 294.857 173.148 291.904C174.207 290.792 175.221 289.643 176.189 288.459C177.106 287.49 177.634 286.218 177.673 284.885C177.668 284.276 177.553 283.673 177.336 283.105ZM65.6759 299.167C65.8175 299.066 65.9591 298.958 66.0939 298.85C66.0535 298.951 65.8579 299.066 65.6759 299.167H65.6759ZM67.8404 296.989C67.6853 297.164 67.5437 297.339 67.3886 297.515C66.9168 298.043 66.4099 298.538 65.8714 298.998C65.7972 299.066 65.7163 299.133 65.6354 299.194C65.6345 299.194 65.6336 299.194 65.6328 299.194C65.632 299.195 65.6312 299.195 65.6306 299.196C65.63 299.196 65.6295 299.197 65.6291 299.198C65.6288 299.199 65.6286 299.2 65.6287 299.201C65.5313 299.244 65.4367 299.294 65.3454 299.349C65.0555 299.524 64.7588 299.686 64.4554 299.834C63.8612 300.053 63.25 300.222 62.628 300.34C62.15 300.375 61.6702 300.38 61.1917 300.354H61.1782C60.8479 300.28 60.5216 300.19 60.2004 300.084C60.0386 300.003 59.8835 299.909 59.7284 299.814C59.6677 299.76 59.6137 299.706 59.58 299.673C59.5142 299.612 59.4533 299.547 59.398 299.477C59.3981 299.476 59.3979 299.475 59.3975 299.474C59.3972 299.474 59.3967 299.473 59.3961 299.472C59.3955 299.472 59.3947 299.471 59.3939 299.471C59.393 299.47 59.3922 299.47 59.3913 299.47C59.3171 299.335 59.2362 299.201 59.162 299.066C59.1582 299.062 59.1558 299.057 59.1553 299.052C59.1013 298.884 59.0541 298.708 59.0137 298.533C58.999 298.225 59.0013 297.917 59.0204 297.609C59.1109 297.178 59.2326 296.755 59.3845 296.341C59.5211 296.048 59.6765 295.765 59.8498 295.492C59.8633 295.465 59.9307 295.357 60.0049 295.236C60.0117 295.229 60.0116 295.229 60.0116 295.222C60.1128 295.107 60.214 294.986 60.3218 294.878C60.5039 294.676 60.6995 294.501 60.895 294.319C61.2753 294.07 61.6693 293.842 62.0751 293.637C62.7188 293.409 63.3794 293.231 64.0508 293.105C65.0409 293.026 66.036 293.035 67.0245 293.132C67.9608 293.294 68.8846 293.522 69.7892 293.813C69.241 294.877 68.6167 295.9 67.9214 296.874C67.8944 296.915 67.8674 296.955 67.8404 296.989ZM60.342 294.77C60.2826 294.866 60.2125 294.954 60.133 295.033C60.1865 294.934 60.2573 294.845 60.342 294.77Z" fill="#2C3039"/>
<path d="M157.068 214.237C157.008 216.354 156.947 218.471 156.886 220.589C156.758 225.289 156.625 229.991 156.488 234.696C156.347 239.989 156.198 245.28 156.043 250.569C155.969 253.3 155.893 256.031 155.814 258.762C155.605 266.119 155.398 273.473 155.194 280.825C155.173 281.587 155.146 282.343 155.126 283.105C155.025 286.753 154.924 290.401 154.823 294.049C154.708 298.007 154.596 301.965 154.486 305.923C154.405 308.89 154.322 311.86 154.236 314.831C153.629 336.362 153.022 357.893 152.416 379.424C152.39 380.757 151.849 382.029 150.906 382.972C149.963 383.915 148.691 384.456 147.358 384.481C146.02 384.47 144.74 383.934 143.794 382.988C142.848 382.042 142.312 380.762 142.301 379.424C142.638 367.313 142.98 355.202 143.326 343.092C143.629 332.141 143.937 321.19 144.25 310.239C144.351 306.631 144.452 303.022 144.553 299.41C144.708 293.975 144.861 288.54 145.012 283.105C145.032 282.343 145.059 281.587 145.079 280.825C145.092 280.158 145.113 279.497 145.133 278.829C145.43 268.276 145.726 257.721 146.023 247.164C146.144 243.01 146.261 238.854 146.374 234.696C146.508 229.955 146.643 225.217 146.778 220.481C146.839 218.397 146.893 216.32 146.954 214.237C146.979 212.903 147.52 211.632 148.463 210.689C149.406 209.746 150.678 209.205 152.011 209.179C153.349 209.19 154.629 209.726 155.575 210.673C156.521 211.619 157.058 212.899 157.068 214.237Z" fill="#2C3039"/>
<path d="M434.5 215.64C429.196 235.721 422.858 255.514 415.51 274.94C413.482 280.299 411.408 285.647 409.191 290.93L409.701 289.722C408.711 292.238 407.447 294.638 405.932 296.877C405.828 297.022 405.723 297.165 405.617 297.306C406.141 296.636 406.24 296.504 405.915 296.909C405.744 297.112 405.575 297.315 405.398 297.513C404.926 298.041 404.419 298.538 403.881 298.999C403.746 299.115 403.608 299.228 403.469 299.339L404.101 298.847C404.028 299.02 403.512 299.25 403.352 299.348C402.833 299.662 402.291 299.936 401.73 300.17L402.939 299.66C402.021 300.03 401.063 300.292 400.085 300.443L401.43 300.262C400.469 300.395 399.495 300.405 398.532 300.293L399.876 300.474C399.088 300.365 398.316 300.157 397.58 299.855L398.788 300.365C398.396 300.194 398.017 299.992 397.656 299.761C397.473 299.642 396.911 299.216 397.646 299.777C398.41 300.361 397.744 299.828 397.587 299.672C397.456 299.543 397.338 299.403 397.21 299.271C396.615 298.661 397.882 300.321 397.477 299.607C397.261 299.25 397.064 298.881 396.885 298.504L397.395 299.712C397.163 299.137 396.998 298.537 396.904 297.924L397.085 299.268C396.988 298.506 396.987 297.735 397.083 296.972L396.902 298.317C397.026 297.466 397.251 296.633 397.573 295.835L397.063 297.043C397.287 296.507 397.553 295.989 397.857 295.493C397.997 295.237 398.162 294.995 398.348 294.771C398.382 294.782 397.493 295.791 397.965 295.281C398.088 295.148 398.203 295.008 398.328 294.876C398.528 294.664 398.742 294.47 398.952 294.27C399.657 293.599 397.966 294.921 398.779 294.391C399.368 294.004 399.988 293.665 400.633 293.38L399.425 293.89C400.505 293.446 401.637 293.143 402.793 292.986L401.449 293.167C402.897 293 404.361 293.018 405.805 293.218L404.461 293.038C406.29 293.315 408.077 293.818 409.782 294.535L408.574 294.025C412.209 295.585 415.427 297.902 418.641 300.173C421.744 302.421 425.014 304.428 428.422 306.179C435.754 309.824 443.646 312.212 451.769 313.242C463.418 314.669 475.239 313.147 486.147 308.817C497.055 304.487 506.701 297.487 514.2 288.459C515.115 287.489 515.642 286.216 515.682 284.883C515.672 283.544 515.141 282.261 514.2 281.307C512.345 279.604 508.84 279.123 507.048 281.307C505.35 283.38 503.524 285.346 501.582 287.192C500.675 288.052 499.744 288.886 498.789 289.693C498.243 290.155 497.69 290.607 497.129 291.05C496.864 291.259 496.038 291.817 497.307 290.916C497.016 291.123 496.737 291.348 496.45 291.56C492.203 294.691 487.601 297.308 482.74 299.359L483.948 298.849C478.731 301.037 473.252 302.538 467.649 303.314L468.993 303.134C463.229 303.892 457.389 303.883 451.627 303.108L452.971 303.289C447.211 302.497 441.576 300.963 436.21 298.723L437.418 299.233C432.239 296.942 427.325 294.095 422.761 290.743C420.386 288.984 417.881 287.407 415.267 286.027C412.223 284.472 408.926 283.47 405.532 283.067C399.167 282.318 392.681 284.797 389.182 290.296C385.962 295.357 386.003 302.598 390.513 306.901C395.157 311.333 402.191 311.296 407.664 308.524C412.936 305.854 416.102 300.307 418.329 295.076C423.34 283.306 427.776 271.264 431.909 259.16C435.999 247.186 439.707 235.09 443.035 222.873C443.447 221.36 443.853 219.845 444.253 218.329C444.928 215.774 443.403 212.719 440.721 212.108C439.428 211.775 438.057 211.958 436.896 212.617C435.735 213.276 434.876 214.36 434.5 215.64L434.5 215.64Z" fill="#2C3039"/>
<path d="M484.96 214.237L483.139 278.831L481.329 343.09L480.305 379.424C480.316 380.762 480.853 382.042 481.799 382.988C482.745 383.934 484.024 384.47 485.362 384.482C486.695 384.456 487.967 383.915 488.91 382.972C489.853 382.029 490.394 380.757 490.419 379.424L492.24 314.829L494.051 250.571L495.075 214.237C495.063 212.899 494.527 211.619 493.581 210.673C492.635 209.727 491.355 209.191 490.017 209.179C488.684 209.205 487.413 209.746 486.47 210.689C485.527 211.632 484.986 212.903 484.96 214.237Z" fill="#2C3039"/>
<path opacity="0.2" d="M309.909 361.389H311.479V289.884H348.114V288.317H311.479V258.146H339.771C339.356 257.618 338.929 257.097 338.49 256.583H311.479V236.655C310.96 236.434 310.437 236.22 309.909 236.019V256.583H279.125V231.05C278.598 231.074 278.078 231.111 277.555 231.155V256.583H252.996V237.533C252.469 237.767 251.949 238.012 251.434 238.27V256.583H230.789V258.146H251.434V288.317H230.789V289.884H251.434V361.389H252.996V289.884C256.221 289.883 259.415 290.518 262.395 291.752C265.375 292.986 268.083 294.795 270.363 297.075C272.644 299.356 274.453 302.064 275.687 305.043C276.921 308.023 277.555 311.217 277.555 314.442V361.389H279.125V289.884H309.909V361.389ZM252.996 288.317V258.146H277.555V288.317H252.996ZM279.125 288.317V258.146H279.741C283.703 258.146 287.626 258.926 291.287 260.443C294.947 261.959 298.273 264.182 301.074 266.984C303.875 269.785 306.097 273.111 307.613 276.772C309.129 280.432 309.909 284.355 309.909 288.317H279.125Z" fill="#2C3039"/>
<path d="M300.319 339.949C298.342 348.769 293.607 356.728 286.799 362.674C286.3 363.105 285.801 363.524 285.282 363.935C284.021 364.05 282.769 364.166 281.526 364.285C280.494 364.38 279.476 364.481 278.465 364.575L278.283 364.596L278.155 363.49L277.642 359.012C275.654 355.767 274.422 352.115 274.037 348.329C273.651 344.542 274.123 340.717 275.417 337.138C277.197 332.336 280.42 328.095 283.59 323.887C287.966 318.075 292.221 312.329 292.376 305.242C294.529 307.998 296.32 311.019 297.703 314.231C296.398 314.846 295.225 315.709 294.25 316.773C293.974 317.077 293.697 317.501 293.886 317.866C294.048 318.176 294.453 318.25 294.803 318.29C295.646 318.378 296.496 318.466 297.339 318.553C298.013 318.628 298.687 318.695 299.362 318.769C300.178 321.447 300.731 324.197 301.014 326.982C301.468 331.314 301.234 335.691 300.319 339.949Z" fill="#2C3039"/>
<path d="M322.708 322.276C318.729 325.169 316.403 329.329 314.596 333.914C312.744 334.507 311.077 335.571 309.761 337.003C309.484 337.306 309.208 337.731 309.397 338.095C309.559 338.405 309.963 338.48 310.314 338.52C311.157 338.608 312.006 338.695 312.849 338.783C311.042 344.204 309.383 349.815 306.187 354.393C304.061 357.416 301.291 359.929 298.075 361.75C297.198 362.25 296.293 362.698 295.364 363.092C291.939 363.355 288.578 363.636 285.283 363.935C284.022 364.05 282.77 364.166 281.527 364.286C280.496 364.38 279.477 364.481 278.466 364.576C278.459 364.205 278.459 363.834 278.466 363.463C278.679 353.583 282.314 344.084 288.749 336.585C289.053 336.234 289.363 335.89 289.68 335.546C292.94 332.064 296.774 329.167 301.015 326.982C307.697 323.508 315.187 321.883 322.708 322.276Z" fill="#2E4D99"/>
<path d="M282.69 360.826L281.914 363.119L281.523 364.286C280.491 364.38 279.473 364.481 278.462 364.576L278.28 364.596C277.16 364.71 276.048 364.825 274.935 364.94C274.645 364.602 274.355 364.259 274.072 363.908C267.033 355.385 263.655 344.422 264.675 333.416C265.694 322.409 271.029 312.253 279.514 305.168C278.623 309.828 279.662 314.292 281.368 318.722C281.186 318.796 281.011 318.87 280.842 318.951C279.537 319.566 278.364 320.429 277.39 321.493C277.113 321.797 276.837 322.222 277.025 322.586C277.187 322.896 277.592 322.97 277.942 323.011C278.785 323.098 279.635 323.186 280.478 323.274C281.152 323.348 281.826 323.415 282.501 323.489C282.818 323.523 283.135 323.557 283.452 323.591C283.499 323.692 283.539 323.786 283.586 323.887C285.508 328.055 287.578 332.242 288.745 336.585C289.037 337.674 289.267 338.78 289.433 339.896C289.952 343.667 289.616 347.507 288.448 351.13C287.281 354.753 285.313 358.067 282.69 360.826Z" fill="#2E4D99"/>
<path d="M350.565 263.024C344.76 251.701 335.766 242.173 325.189 235.172C314.577 228.181 302.401 223.923 289.745 222.778C288.086 222.628 286.423 222.539 284.756 222.514C282.786 222.484 253.153 231.031 243.227 238.011C233.306 244.905 225.144 254.035 219.401 264.664C213.668 275.352 210.848 287.36 211.225 299.482C211.716 311.677 215.115 323.578 221.139 334.193C227.08 344.773 235.517 353.742 245.714 360.319C256.056 366.919 266.446 384.417 278.657 385.034C290.961 385.657 304.992 369.151 316.213 364.139C327.435 359.086 337.136 351.18 344.349 341.209C351.359 331.438 355.894 320.112 357.565 308.203C359.301 296.009 358.492 283.433 354.328 271.779C353.259 268.784 352.003 265.86 350.565 263.024C349.365 260.66 345.847 259.79 343.646 261.21C342.511 261.908 341.69 263.017 341.352 264.306C341.014 265.594 341.185 266.964 341.831 268.129C342.536 269.517 343.191 270.928 343.797 272.362L343.287 271.154C345.58 276.667 347.139 282.456 347.924 288.375L347.743 287.03C348.579 293.451 348.564 299.954 347.699 306.371L347.88 305.027C347.005 311.443 345.293 317.717 342.785 323.688L343.295 322.48C342.005 325.526 340.502 328.478 338.796 331.312C337.932 332.744 337.015 334.143 336.045 335.508C335.619 336.107 335.18 336.695 334.737 337.282C334.16 338.048 335.524 336.282 334.928 337.033C334.826 337.161 334.725 337.289 334.623 337.417C334.317 337.8 334.006 338.179 333.691 338.555C331.589 341.063 329.294 343.404 326.829 345.557C326.215 346.093 325.591 346.617 324.956 347.128C324.64 347.384 324.327 347.65 323.998 347.887C324.01 347.878 325.063 347.078 324.44 347.542C324.244 347.688 324.05 347.836 323.854 347.982C322.545 348.951 321.202 349.871 319.825 350.741C316.653 352.739 313.326 354.479 309.875 355.942L311.083 355.432C305.13 357.938 298.874 359.651 292.474 360.525L293.819 360.344C287.422 361.208 280.94 361.22 274.541 360.378L275.885 360.559C270.069 359.778 264.38 358.24 258.963 355.984L260.171 356.494C257.033 355.169 254.008 353.592 251.124 351.78C249.697 350.88 248.307 349.926 246.955 348.915C246.762 348.771 246.57 348.625 246.378 348.48C245.761 348.014 246.822 348.824 246.83 348.829C246.471 348.572 246.126 348.296 245.795 348.004C245.142 347.471 244.498 346.927 243.866 346.37C241.333 344.14 238.968 341.726 236.79 339.149C236.244 338.504 235.711 337.85 235.189 337.186C234.963 336.899 234.551 336.316 235.462 337.543C235.342 337.381 235.217 337.223 235.096 337.063C234.806 336.677 234.519 336.289 234.236 335.897C233.246 334.527 232.304 333.123 231.412 331.686C229.396 328.432 227.636 325.025 226.149 321.498L226.659 322.706C224.225 316.916 222.561 310.832 221.709 304.61L221.89 305.954C221.121 300.218 221.11 294.406 221.857 288.667L221.676 290.012C222.442 284.454 223.937 279.022 226.123 273.856L225.613 275.064C226.988 271.829 228.61 268.706 230.465 265.72C231.394 264.226 232.378 262.769 233.417 261.348C233.653 261.025 233.892 260.704 234.133 260.385C234.352 260.096 234.953 259.378 233.928 260.647C234.028 260.522 234.125 260.394 234.224 260.269C234.794 259.546 235.379 258.835 235.977 258.135C238.241 255.484 240.694 253 243.316 250.703C243.978 250.122 244.651 249.554 245.335 248.998C245.645 248.745 245.958 248.495 246.273 248.247C246.399 248.148 246.526 248.051 246.652 247.952C245.305 249.023 246.277 248.243 246.583 248.014C247.992 246.959 249.438 245.956 250.923 245.006C254.222 242.896 257.692 241.067 261.298 239.539L260.09 240.048C265.323 237.851 288.506 232.665 292.723 233.231L291.378 233.051C297.576 233.916 303.633 235.589 309.396 238.029L308.188 237.519C311.108 238.759 313.946 240.184 316.684 241.787C318.052 242.589 319.394 243.434 320.708 244.324C321.33 244.745 321.945 245.175 322.554 245.615C322.859 245.835 323.161 246.057 323.462 246.282C323.629 246.407 323.795 246.533 323.962 246.658C324.663 247.184 322.997 245.898 323.731 246.478C326.19 248.41 328.525 250.494 330.723 252.718C331.802 253.817 332.844 254.951 333.849 256.12C334.365 256.72 334.87 257.328 335.364 257.946C335.61 258.253 336.446 259.363 335.421 258.003C335.672 258.335 335.925 258.665 336.173 259C338.303 261.884 340.196 264.938 341.831 268.129C343.04 270.488 346.542 271.367 348.751 269.943C349.885 269.245 350.707 268.136 351.045 266.847C351.383 265.559 351.211 264.189 350.565 263.024Z" fill="#2C3039"/>
<path d="M291.637 345.557C291.115 345.581 290.598 345.444 290.157 345.164C289.715 344.885 289.37 344.476 289.169 343.994C288.967 343.512 288.918 342.979 289.03 342.469C289.141 341.958 289.406 341.494 289.79 341.139C289.854 340.884 289.9 340.7 289.965 340.445C289.942 340.389 289.918 340.334 289.895 340.278C287.549 334.683 272.575 350.281 271.928 355.539C271.643 357.864 271.763 360.22 272.283 362.503C267.433 351.923 264.915 340.424 264.899 328.786C264.898 325.865 265.06 322.947 265.385 320.044C265.653 317.665 266.025 315.302 266.502 312.957C269.101 300.23 274.683 288.302 282.788 278.151C287.423 278.41 291.485 277.704 291.877 268.72C291.947 267.122 293.132 265.739 293.393 264.165C292.951 264.223 292.501 264.259 292.059 264.288C291.921 264.295 291.776 264.303 291.638 264.31L291.586 264.312C291.099 264.334 290.617 264.215 290.197 263.969C289.777 263.723 289.437 263.361 289.218 262.926C288.999 262.491 288.91 262.003 288.962 261.519C289.014 261.035 289.205 260.576 289.512 260.198C289.703 259.963 289.894 259.728 290.085 259.493C290.376 259.13 290.673 258.775 290.963 258.412C290.997 258.378 291.028 258.341 291.057 258.303C291.391 257.89 291.725 257.484 292.059 257.07C291.449 256.125 290.63 255.333 289.665 254.756C286.32 252.797 281.707 254.154 279.291 257.179C276.868 260.204 276.411 264.448 277.253 268.227C278.08 271.443 279.449 274.495 281.301 277.251C281.119 277.483 280.93 277.708 280.749 277.941C277.434 282.203 274.544 286.781 272.122 291.608C272.808 286.254 264.427 266.922 261.186 262.827C257.293 257.909 249.311 260.055 248.625 266.29C248.618 266.351 248.612 266.411 248.606 266.472C249.087 266.743 249.558 267.031 250.019 267.336C250.598 267.723 251.047 268.276 251.307 268.923C251.566 269.569 251.625 270.279 251.474 270.959C251.323 271.639 250.971 272.258 250.462 272.734C249.954 273.21 249.314 273.522 248.625 273.628L248.555 273.639C242.111 282.839 262.768 306.785 267.938 301.408C265.505 308.305 263.978 315.489 263.397 322.779C263.068 327.08 263.088 331.401 263.455 335.699L263.433 335.546C262.284 326.185 242.576 312.267 236.821 313.427C233.505 314.094 230.24 313.943 230.743 317.287C230.751 317.34 230.759 317.394 230.767 317.447C231.661 317.811 232.531 318.23 233.372 318.702C233.853 318.974 234.324 319.262 234.785 319.567C235.365 319.954 235.813 320.507 236.073 321.153C236.333 321.799 236.391 322.509 236.24 323.189C236.089 323.869 235.737 324.488 235.229 324.964C234.72 325.441 234.08 325.752 233.391 325.858L233.321 325.869C233.27 325.876 233.227 325.884 233.176 325.891C230.243 335.983 251.994 352.27 265.218 347.088H265.225C266.536 352.782 268.434 358.325 270.891 363.628H291.13C291.203 363.403 291.268 363.171 291.333 362.946C289.46 363.063 287.579 362.951 285.733 362.612C287.234 360.769 288.736 358.912 290.238 357.07C290.271 357.035 290.303 356.999 290.332 356.961C291.094 356.018 291.863 355.082 292.624 354.139L292.625 354.138C292.665 351.247 292.334 348.363 291.638 345.557L291.637 345.557ZM268.46 299.964L268.471 299.95L268.46 299.979V299.964ZM263.977 340.378L263.803 339.986C263.811 339.703 263.811 339.42 263.803 339.13C263.803 339.05 263.789 338.97 263.789 338.891C263.854 339.391 263.912 339.892 263.985 340.392L263.977 340.378Z" fill="#2C3039"/>
<path d="M64.2261 303.442C68.3226 303.442 71.6435 300.121 71.6435 296.025C71.6435 291.928 68.3226 288.607 64.2261 288.607C60.1295 288.607 56.8086 291.928 56.8086 296.025C56.8086 300.121 60.1295 303.442 64.2261 303.442Z" fill="#2C3039"/>
<path d="M153.238 384.36C157.334 384.36 160.655 381.039 160.655 376.942C160.655 372.846 157.334 369.525 153.238 369.525C149.141 369.525 145.82 372.846 145.82 376.942C145.82 381.039 149.141 384.36 153.238 384.36Z" fill="#2C3039"/>
<path d="M491.07 384.36C495.166 384.36 498.487 381.039 498.487 376.942C498.487 372.846 495.166 369.525 491.07 369.525C486.973 369.525 483.652 372.846 483.652 376.942C483.652 381.039 486.973 384.36 491.07 384.36Z" fill="#2C3039"/>
<path d="M509.277 289.956C513.373 289.956 516.694 286.635 516.694 282.538C516.694 278.442 513.373 275.121 509.277 275.121C505.18 275.121 501.859 278.442 501.859 282.538C501.859 286.635 505.18 289.956 509.277 289.956Z" fill="#2C3039"/>
<path d="M487.695 221.176C491.791 221.176 495.112 217.855 495.112 213.758C495.112 209.661 491.791 206.341 487.695 206.341C483.598 206.341 480.277 209.661 480.277 213.758C480.277 217.855 483.598 221.176 487.695 221.176Z" fill="#2C3039"/>
<path d="M178.188 282.538C178.184 284.433 177.451 286.253 176.142 287.623C174.832 288.992 173.047 289.806 171.154 289.896C169.261 289.985 167.407 289.344 165.974 288.104C164.541 286.864 163.64 285.121 163.457 283.235C163.273 281.35 163.822 279.465 164.989 277.973C166.156 276.48 167.852 275.494 169.727 275.217C171.601 274.94 173.51 275.395 175.059 276.486C176.607 277.578 177.677 279.223 178.046 281.082C178.142 281.561 178.189 282.049 178.188 282.538Z" fill="#2C3039"/>
<path d="M326.535 242.754C330.631 242.754 333.952 239.433 333.952 235.336C333.952 231.24 330.631 227.919 326.535 227.919C322.438 227.919 319.117 231.24 319.117 235.336C319.117 239.433 322.438 242.754 326.535 242.754Z" fill="#2C3039"/>
<path d="M253.036 235.336C253.031 237.231 252.299 239.051 250.989 240.421C249.68 241.79 247.894 242.604 246.002 242.694C244.109 242.783 242.254 242.142 240.822 240.902C239.389 239.662 238.488 237.919 238.304 236.033C238.121 234.147 238.67 232.263 239.837 230.771C241.004 229.278 242.7 228.292 244.575 228.015C246.449 227.738 248.358 228.193 249.907 229.284C251.455 230.376 252.525 232.021 252.894 233.88C252.989 234.359 253.037 234.847 253.036 235.336Z" fill="#2C3039"/>
<path d="M157.282 213.758C157.277 215.653 156.545 217.473 155.235 218.843C153.926 220.212 152.14 221.026 150.248 221.116C148.355 221.205 146.501 220.564 145.068 219.324C143.635 218.084 142.734 216.341 142.55 214.455C142.367 212.569 142.916 210.685 144.083 209.193C145.25 207.7 146.946 206.713 148.821 206.437C150.695 206.16 152.604 206.615 154.153 207.706C155.701 208.798 156.771 210.443 157.14 212.302C157.235 212.781 157.283 213.269 157.282 213.758Z" fill="#2C3039"/>
<path d="M404.082 306.139C408.178 306.139 411.499 302.818 411.499 298.722C411.499 294.625 408.178 291.304 404.082 291.304C399.985 291.304 396.664 294.625 396.664 298.722C396.664 302.818 399.985 306.139 404.082 306.139Z" fill="#2C3039"/>
<path d="M287.426 238.708C293.384 238.708 298.215 233.877 298.215 227.919C298.215 221.96 293.384 217.13 287.426 217.13C281.467 217.13 276.637 221.96 276.637 227.919C276.637 233.877 281.467 238.708 287.426 238.708Z" fill="#2C3039"/>
<path d="M579.197 384.927L0.80289 385.134C0.697452 385.134 0.593044 385.113 0.495633 385.073C0.398221 385.032 0.309716 384.973 0.235161 384.899C0.160605 384.824 0.101457 384.736 0.0611078 384.638C0.0207586 384.541 0 384.436 0 384.331C0 384.226 0.0207586 384.121 0.0611078 384.024C0.101457 383.926 0.160605 383.838 0.235161 383.763C0.309716 383.689 0.398221 383.63 0.495633 383.589C0.593044 383.549 0.697452 383.528 0.80289 383.528L579.197 383.321C579.41 383.322 579.613 383.406 579.763 383.557C579.913 383.707 579.998 383.911 579.998 384.124C579.998 384.336 579.913 384.54 579.763 384.691C579.613 384.841 579.41 384.926 579.197 384.927Z" fill="#F0F1F2"/>
</g>
<defs>
<clipPath id="clip0_145_2005">
<rect width="580" height="385.134" fill="white"/>
</clipPath>
</defs>
</svg>
