<svg width="89" height="60" viewBox="0 0 89 60" fill="none" xmlns="http://www.w3.org/2000/svg">
<path d="M40.614 59.2071H48.6413V43.9254H40.614V59.2071Z" fill="#2E4D99"/>
<path d="M54.8092 43.9247H52.6545V54.4756H54.8092V43.9247Z" fill="#2C3039"/>
<path d="M36.597 43.9247H34.4424V54.4756H36.597V43.9247Z" fill="#2C3039"/>
<path d="M48.6379 0.547424H40.6106V15.8292H48.6379V0.547424Z" fill="#2E4D99"/>
<path d="M54.8092 5.28125H52.6545V15.8321H54.8092V5.28125Z" fill="#2C3039"/>
<path d="M36.597 5.28125H34.4424V15.8321H36.597V5.28125Z" fill="#2C3039"/>
<path d="M6.98204 35.4319L6.44045 32.5278H3.87886C3.78518 33.008 3.69442 33.491 3.60952 33.9799C3.5217 34.4688 3.43973 34.9518 3.36068 35.4319H1.15625C1.62466 33.0958 2.09013 30.7742 2.55854 28.4644C3.02694 26.1546 3.49242 23.8331 3.96083 21.4969H6.36433L9.18648 35.4319H6.98204ZM5.10257 24.7201C4.9679 25.6803 4.82738 26.6376 4.681 27.592C4.53462 28.5464 4.37361 29.5183 4.20089 30.5049H6.10378L5.2021 24.7172H5.10257V24.7201Z" fill="#2C3039"/>
<path d="M10.2462 35.4319V25.5398H13.0889C14.2218 25.5398 15.062 25.7769 15.6007 26.2512C16.1423 26.7255 16.4116 27.4105 16.4116 28.3034C16.4116 28.7045 16.3267 29.0675 16.1628 29.3954C15.9959 29.7233 15.7383 29.9926 15.3928 30.2063L15.4133 30.2268C15.8408 30.4142 16.1306 30.7011 16.2857 31.0875C16.438 31.4739 16.517 31.9013 16.517 32.3697C16.517 33.4237 16.2301 34.1995 15.6563 34.6913C15.0825 35.186 14.2072 35.4319 13.0333 35.4319H10.2462ZM14.2921 28.4234C14.2921 28.1043 14.2072 27.8643 14.0403 27.7033C13.8705 27.5422 13.5778 27.4515 13.1591 27.4222H12.4097V29.4451H12.9952C13.4665 29.4451 13.8003 29.3544 13.9964 29.1758C14.1955 28.9943 14.2921 28.7455 14.2921 28.4234ZM14.4326 32.1882C14.4326 31.8399 14.3389 31.5676 14.1486 31.3685C13.9613 31.1695 13.6305 31.067 13.1591 31.067H12.4097V33.491H13.1591C13.4431 33.491 13.6656 33.4588 13.8266 33.3915C13.9876 33.3241 14.1164 33.2304 14.2101 33.1104C14.3038 32.9904 14.3653 32.8528 14.3916 32.7006C14.418 32.5454 14.4326 32.3756 14.4326 32.1882Z" fill="#2C3039"/>
<path d="M21.3797 27.4632V35.4319H19.2162V27.4632H17.2343V25.5222H23.3821V27.4632H21.3797Z" fill="#2C3039"/>
<path d="M26.6668 25.3788C27.1996 25.3788 27.6504 25.4491 28.0193 25.5896C28.3852 25.7301 28.6897 25.9204 28.9298 26.1604C29.1698 26.4005 29.3455 26.6816 29.4597 27.0007C29.5738 27.3198 29.6441 27.6681 29.6704 28.0429C29.7231 28.4293 29.7553 28.8567 29.7612 29.3251C29.767 29.7935 29.77 30.2209 29.77 30.6074V31.1285C29.77 31.4359 29.7612 31.7433 29.7407 32.0506C29.7202 32.358 29.6968 32.6596 29.6704 32.9523C29.6031 33.4998 29.4597 33.9477 29.2401 34.2931C29.0205 34.6415 28.76 34.9079 28.4584 35.0953C28.1569 35.2826 27.8349 35.4085 27.4865 35.4759C27.1381 35.5432 26.7985 35.5754 26.4648 35.5754C25.9964 35.5754 25.5924 35.511 25.2528 35.3851C24.9132 35.2592 24.6263 35.0865 24.3921 34.8728C24.1579 34.6591 23.9793 34.4161 23.8505 34.1409C23.7246 33.8686 23.6339 33.5759 23.5812 33.2685C23.5548 33.0958 23.5314 32.8967 23.5109 32.6771C23.4904 32.4576 23.4728 32.2263 23.4611 31.9862C23.4465 31.7462 23.4406 31.5032 23.4406 31.2544C23.4406 31.0084 23.4406 30.7772 23.4406 30.5635C23.4406 30.2414 23.4465 29.9135 23.4611 29.571C23.4728 29.2314 23.4933 28.9065 23.5226 28.5991C23.549 28.2917 23.5812 28.0048 23.6221 27.7384C23.6631 27.472 23.7158 27.2583 23.7832 27.0973C23.9705 26.5908 24.3043 26.1751 24.7844 25.856C25.2645 25.5398 25.891 25.3788 26.6668 25.3788ZM26.6551 27.3812C26.3389 27.3812 26.0988 27.5013 25.9408 27.7413C25.8471 27.9023 25.7797 28.0751 25.7329 28.2624C25.6861 28.4498 25.6539 28.6635 25.6334 28.9035C25.6129 29.1436 25.6041 29.4129 25.6041 29.7145C25.6041 30.016 25.6041 30.3585 25.6041 30.745V30.906C25.6041 31.2661 25.607 31.6144 25.6158 31.9482C25.6217 32.2819 25.6509 32.5483 25.7066 32.7503C25.771 32.9787 25.8793 33.169 26.0227 33.3212C26.1691 33.4764 26.3799 33.5525 26.658 33.5525C26.8688 33.5525 27.0503 33.491 27.2025 33.3622C27.3548 33.2363 27.4572 33.0782 27.5099 32.8908C27.5245 32.8382 27.5392 32.7328 27.5597 32.5805C27.5802 32.4283 27.5948 32.2409 27.6094 32.0184C27.6212 31.7989 27.6329 31.5617 27.6387 31.3071C27.6446 31.0553 27.6475 30.8006 27.6475 30.5459C27.6475 30.0804 27.6417 29.6237 27.627 29.1846C27.6124 28.7455 27.5802 28.4117 27.5275 28.1834C27.5011 28.037 27.4543 27.917 27.3899 27.8233C27.2435 27.5305 26.9976 27.3812 26.6551 27.3812Z" fill="#2C3039"/>
<path d="M35.3762 35.4319V31.2485H33.4557V35.4319H31.2923V25.5398H33.4557V29.5242H35.3762V25.5398H37.5396V35.4319H35.3762Z" fill="#2C3039"/>
<path d="M42.3027 25.3788C42.8356 25.3788 43.2864 25.4491 43.6553 25.5896C44.0212 25.7301 44.3257 25.9204 44.5657 26.1604C44.8058 26.4005 44.9814 26.6816 45.0956 27.0007C45.2098 27.3198 45.28 27.6681 45.3064 28.0429C45.3591 28.4293 45.3913 28.8567 45.3971 29.3251C45.403 29.7935 45.4059 30.2209 45.4059 30.6074V31.1285C45.4059 31.4359 45.3971 31.7433 45.3767 32.0506C45.3562 32.358 45.3327 32.6596 45.3064 32.9523C45.2391 33.4998 45.0956 33.9477 44.876 34.2931C44.6565 34.6415 44.3959 34.9079 44.0944 35.0953C43.7929 35.2826 43.4708 35.4085 43.1225 35.4759C42.7741 35.5432 42.4345 35.5754 42.1007 35.5754C41.6323 35.5754 41.2283 35.511 40.8887 35.3851C40.5492 35.2592 40.2623 35.0865 40.028 34.8728C39.7938 34.6591 39.6153 34.4161 39.4865 34.1409C39.3606 33.8686 39.2698 33.5759 39.2171 33.2685C39.1908 33.0958 39.1674 32.8967 39.1469 32.6771C39.1264 32.4576 39.1088 32.2263 39.0971 31.9862C39.0825 31.7462 39.0766 31.5032 39.0766 31.2544C39.0766 31.0084 39.0766 30.7772 39.0766 30.5635C39.0766 30.2414 39.0825 29.9135 39.0971 29.571C39.1088 29.2314 39.1293 28.9065 39.1586 28.5991C39.1849 28.2917 39.2171 28.0048 39.2581 27.7384C39.2991 27.472 39.3518 27.2583 39.4191 27.0973C39.6065 26.5908 39.9402 26.1751 40.4203 25.856C40.9005 25.5398 41.5299 25.3788 42.3027 25.3788ZM42.294 27.3812C41.9778 27.3812 41.7377 27.5013 41.5796 27.7413C41.486 27.9023 41.4186 28.0751 41.3718 28.2624C41.3249 28.4498 41.2927 28.6635 41.2723 28.9035C41.2518 29.1436 41.243 29.4129 41.243 29.7145C41.243 30.016 41.243 30.3585 41.243 30.745V30.906C41.243 31.2661 41.2459 31.6144 41.2547 31.9482C41.2605 32.2819 41.2898 32.5483 41.3454 32.7503C41.4098 32.9787 41.5182 33.169 41.6616 33.3212C41.808 33.4764 42.0188 33.5525 42.2969 33.5525C42.5077 33.5525 42.6892 33.491 42.8414 33.3622C42.9936 33.2363 43.0961 33.0782 43.1488 32.8908C43.1634 32.8382 43.1781 32.7328 43.1986 32.5805C43.2191 32.4283 43.2337 32.2409 43.2483 32.0184C43.26 31.7989 43.2718 31.5617 43.2776 31.3071C43.2835 31.0553 43.2864 30.8006 43.2864 30.5459C43.2864 30.0804 43.2805 29.6237 43.2659 29.1846C43.2513 28.7455 43.2191 28.4117 43.1664 28.1834C43.14 28.037 43.0932 27.917 43.0288 27.8233C42.8795 27.5305 42.6365 27.3812 42.294 27.3812Z" fill="#2C3039"/>
<path d="M53.3161 30.1448L52.7131 31.5471L51.867 33.33H50.5789L49.7328 31.5676L49.1298 30.2473H49.0683V35.4349H46.9048V25.5193H48.9482L51.2112 30.3058H51.2522L52.1334 28.4029L53.5152 25.5193H55.5586V35.4319H53.3571V30.1448H53.3161Z" fill="#2C3039"/>
<path d="M62.4471 35.4319L61.9055 32.5278H59.3439C59.2502 33.008 59.1595 33.491 59.0746 33.9799C58.9868 34.4688 58.9048 34.9518 58.8257 35.4319H56.6242C57.0926 33.0958 57.5581 30.7742 58.0265 28.4644C58.4949 26.1546 58.9604 23.8331 59.4288 21.4969H61.8323L64.6545 35.4319H62.4471ZM60.5647 24.7201C60.43 25.6803 60.2895 26.6376 60.1431 27.592C59.9968 28.5464 59.8358 29.5183 59.663 30.5049H61.5659L60.6642 24.7172H60.5647V24.7201Z" fill="#2C3039"/>
<path d="M65.6118 35.4319V25.5603H67.7752V29.5857H68.2173C68.3637 29.5857 68.51 29.574 68.6564 29.5447C68.8028 29.5183 68.9433 29.4539 69.078 29.3544C69.2126 29.2549 69.3327 29.1085 69.4381 28.9123C69.5434 28.7191 69.6313 28.4615 69.6986 28.1424L70.2988 25.5398H72.3422C72.2221 26.0199 72.105 26.5 71.9909 26.9802C71.8767 27.4603 71.7684 27.9404 71.6601 28.4205C71.5517 28.8889 71.3819 29.2841 71.1507 29.612C70.9165 29.9399 70.6266 30.1565 70.2783 30.2619V30.3029C70.7203 30.4112 71.0423 30.6396 71.2502 30.9938C71.4551 31.348 71.6191 31.7637 71.7391 32.2439L72.5208 35.429H70.3983L69.8567 32.9055C69.7894 32.5717 69.7132 32.3053 69.6254 32.1033C69.5376 31.9043 69.4351 31.7491 69.3151 31.6437C69.1951 31.5383 69.0575 31.4651 68.9053 31.4242C68.7501 31.3832 68.5744 31.3656 68.3754 31.3656H67.7752V35.429H65.6118V35.4319Z" fill="#2C3039"/>
<path d="M73.5981 35.4319V25.5398H76.4407C77.5737 25.5398 78.4139 25.7769 78.9525 26.2512C79.4941 26.7255 79.7635 27.4105 79.7635 28.3034C79.7635 28.7045 79.6786 29.0675 79.5146 29.3954C79.3478 29.7233 79.0901 29.9926 78.7447 30.2063L78.7652 30.2268C79.1926 30.4142 79.4824 30.7011 79.6376 31.0875C79.7898 31.4739 79.8689 31.9013 79.8689 32.3697C79.8689 33.4237 79.582 34.1995 79.0082 34.6913C78.4344 35.186 77.559 35.4319 76.3851 35.4319H73.5981ZM77.6439 28.4234C77.6439 28.1043 77.559 27.8643 77.3922 27.7033C77.2224 27.5422 76.9296 27.4515 76.511 27.4222H75.7615V29.4451H76.347C76.8184 29.4451 77.1521 29.3544 77.3483 29.1758C77.5473 28.9943 77.6439 28.7455 77.6439 28.4234ZM77.7845 32.1882C77.7845 31.8399 77.6908 31.5676 77.5005 31.3685C77.3131 31.1695 76.9823 31.067 76.511 31.067H75.7615V33.491H76.511C76.795 33.491 77.0174 33.4588 77.1785 33.3915C77.3395 33.3241 77.4683 33.2304 77.562 33.1104C77.6556 32.9904 77.7171 32.8528 77.7435 32.7006C77.7698 32.5454 77.7845 32.3756 77.7845 32.1882Z" fill="#2C3039"/>
<path d="M85.3141 34.6503C85.1004 34.9577 84.834 35.1831 84.5119 35.3324C84.1899 35.4788 83.8503 35.552 83.4902 35.552C83.0482 35.552 82.6793 35.4729 82.3778 35.3119C82.0762 35.1509 81.8362 34.9343 81.6576 34.662C81.4761 34.3897 81.3502 34.0706 81.277 33.7106C81.2038 33.3505 81.1658 32.964 81.1658 32.5483C81.1658 32.1619 81.2155 31.7813 81.3151 31.4066C81.4146 31.0319 81.5785 30.7011 81.8069 30.4142C82.0323 30.1273 82.3338 29.8931 82.7086 29.7145C83.0833 29.5359 83.5488 29.4451 84.1109 29.4451H85.3726V28.3649C85.3726 28.0721 85.3024 27.8409 85.1618 27.674C85.0213 27.5071 84.7578 27.4222 84.3714 27.4222C84.1723 27.4222 83.9703 27.4895 83.7713 27.6213C83.5722 27.756 83.4375 27.996 83.3702 28.3415L81.4088 27.7413C81.5815 27.0065 81.9328 26.4327 82.4597 26.0199C82.9867 25.6071 83.6688 25.3993 84.5061 25.3993C85.5014 25.3993 86.2567 25.6276 86.7661 26.0814C87.2755 26.5352 87.5331 27.2963 87.5331 28.3649V35.4319H85.3697V34.6708L85.3141 34.6503ZM84.5119 31.067C84.2045 31.067 83.9235 31.1665 83.6717 31.3685C83.417 31.5705 83.2912 31.9277 83.2912 32.44C83.2912 32.7884 83.3819 33.0577 83.5605 33.248C83.742 33.4354 83.985 33.532 84.2924 33.532C84.6407 33.532 84.9072 33.4207 85.0945 33.1982C85.2819 32.9757 85.3756 32.6771 85.3756 32.2995V31.067H84.5119Z" fill="#2C3039"/>
</svg>
