<?xml version="1.0" encoding="utf-8"?><svg viewBox="0 0 60 60" xmlns="http://www.w3.org/2000/svg" xmlns:xlink="http://www.w3.org/1999/xlink"><style>:root>svg{display:none}:root>svg:target{display:block}</style><svg fill="inherit" viewBox="0 0 25 24" id="arrow-bottom" xmlns="http://www.w3.org/2000/svg"><path fill-rule="evenodd" clip-rule="evenodd" d="M12.333 14.878L6.098 7.351l-.765.644 7.521 9 7.48-9-.765-.645-6.236 7.529-.5.616-.5-.617z"/></svg><svg fill="inherit" viewBox="0 0 24 24" id="arrow-left" xmlns="http://www.w3.org/2000/svg"><path fill-rule="evenodd" clip-rule="evenodd" d="M2.117 12l7.527-6.235L9 5l-9 7.521L9 20l.645-.764L2.116 13H24v-1H2.117z"/></svg><svg fill="inherit" viewBox="0 0 24 24" id="arrow-right" xmlns="http://www.w3.org/2000/svg"><path fill-rule="evenodd" clip-rule="evenodd" d="M21.883 12l-7.527 6.235L15 19l9-7.521L15 4l-.645.764L21.884 11H0v1h21.883z"/></svg><svg fill="none" viewBox="0 0 24 24" id="burger" xmlns="http://www.w3.org/2000/svg"><path d="M2 2h4v4H2V2zm0 8h4v4H2v-4zm0 8h4v4H2v-4zm8-16h4v4h-4V2zm0 8h4v4h-4v-4zm0 8h4v4h-4v-4zm8-16h4v4h-4V2zm0 8h4v4h-4v-4zm0 8h4v4h-4v-4z" fill="#fff"/></svg><svg fill="none" viewBox="0 0 24 24" id="cross" xmlns="http://www.w3.org/2000/svg"><path fill-rule="evenodd" clip-rule="evenodd" d="M12.5 12.018L19.518 5l.482.482-7.018 7.018L20 19.518l-.482.482-7.018-7.018L5.482 20 5 19.518l7.018-7.018L5 5.482 5.482 5l7.018 7.018z" fill="#2C3039"/></svg><svg fill="none" viewBox="0 0 60 60" id="guarantee" xmlns="http://www.w3.org/2000/svg"><path d="M26.991 42.263c.469-1.404.469-1.404 1.405-2.458l.351-.351c1.054-1.054 1.522-2.576 1.054-4.098v-.234c-.234-.585-.351-1.054-.351-1.288 0-.351.117-.82.351-1.405v-.234c.468-1.522 0-3.044-1.054-4.097l-.234-.235c-1.053-1.17-1.053-1.17-1.522-2.575l-.117-.468c-.351-1.405-1.405-2.576-2.81-2.927l-.468-.117c-1.405-.352-1.405-.352-2.458-1.405l-.352-.351c-1.053-1.054-2.575-1.522-3.98-1.054l-.351.117c-1.522.351-1.522.351-2.927 0l-.351-.117c-1.405-.468-2.927 0-3.98 1.053l-.352.352c-1.054 1.053-1.054 1.053-2.459 1.405l-.35.117c-1.523.35-2.576 1.522-2.928 2.927l-.117.468c-.468 1.405-.468 1.405-1.405 2.458l-.35.352C.181 29.15-.288 30.673.181 32.195v.234c.234.703.35 1.054.35 1.288 0 .351-.116.703-.35 1.405v.234c-.469 1.522 0 3.044 1.053 4.098l.234.234c1.054 1.17 1.054 1.17 1.522 2.575l.117.469c.352 1.405 1.405 2.575 2.927 2.926l.351.118c.586.117.82.234 1.171.35v12.879c0 .351.117.702.351.82.234.116.352.116.586.116.117 0 .234 0 .35-.117l6.206-3.395 6.088 3.395c.234.235.585.235.936 0 .234-.117.351-.468.351-.82l.117-12.877c.235-.117.469-.234 1.054-.351l.468-.118c1.405-.35 2.459-1.521 2.81-2.926l.117-.469zm-6.439 15.22l-5.151-2.927c-.351-.234-.702-.234-.937 0l-5.15 2.927v-9.834c.936.936 2.458 1.288 3.746.936l.468-.117c1.405-.35 1.405-.35 2.81 0l.35.117c.352.117.703.234 1.055.234 1.053 0 1.99-.468 2.81-1.17v9.834zm4.683-15.688l-.117.468c-.234.703-.82 1.405-1.639 1.64l-.351.117c-1.873.468-1.99.585-3.278 1.873l-.351.35c-.586.586-1.405.82-2.225.586l-.351-.117c-.937-.234-1.405-.351-1.873-.351-.586 0-1.054.117-1.99.351l-.352.117a2.23 2.23 0 01-2.224-.585l-.234-.351c-1.405-1.288-1.522-1.405-3.395-1.873l-.352-.118c-.819-.234-1.404-.936-1.639-1.756l-.117-.35c-.468-1.874-.585-1.991-1.873-3.396l-.351-.234c-.585-.585-.82-1.522-.585-2.342l.117-.234c.234-.82.35-1.288.35-1.873 0-.468-.116-.936-.35-1.756l-.117-.234c-.235-.82 0-1.756.585-2.342l.351-.234c1.288-1.405 1.405-1.522 1.873-3.395l.117-.468c.235-.703.82-1.405 1.64-1.64l.35-.116c1.874-.469 1.99-.586 3.279-1.873l.351-.352a2.23 2.23 0 012.224-.585l.352.117c1.873.468 1.99.468 3.863 0l.351-.117a2.23 2.23 0 012.225.585l.35.352c1.289 1.287 1.406 1.404 3.279 1.873l.351.117c.82.234 1.405.936 1.64 1.639l.116.468c.468 1.873.585 1.99 1.873 3.395l.352.234c.585.586.82 1.522.585 2.342l-.117.234c-.234.82-.351 1.288-.351 1.756 0 .585.117 1.054.35 1.873l.118.234c.234.82 0 1.757-.585 2.342l-.352.234c-1.288 1.405-1.405 1.522-1.873 3.395zm33.6-24.117L42.328 1.171C41.625.468 40.688 0 39.635 0h-17.21a7.47 7.47 0 00-7.492 7.493v6.556c0 .468.351.936.936.936.469 0 .937-.468.937-.936V7.493c0-3.161 2.459-5.62 5.62-5.62h16.858v13.932a4.697 4.697 0 004.683 4.683h14.049v31.844c0 3.044-2.576 5.62-5.62 5.62h-25.17c-.586 0-1.054.35-1.054.936 0 .468.468.936 1.053.936h25.171c4.098 0 7.493-3.395 7.493-7.492V20.37c.117-1.054-.351-1.99-1.054-2.693zm-14.868 1.054c-1.64 0-2.81-1.288-2.81-2.81V2.692l16.04 16.157h-13.23v-.117z" fill="#2E4D99"/></svg><svg fill="inherit" viewBox="0 0 24 24" id="play" xmlns="http://www.w3.org/2000/svg"><path d="M6 19.5v-15L19.5 12 6 19.5z"/></svg><svg fill="none" viewBox="0 0 24 24" id="quote" xmlns="http://www.w3.org/2000/svg"><path d="M11.24 7v4.62c0 3.564-2.332 5.98-5.615 6.63l-.622-1.344c1.52-.573 2.497-2.274 2.497-3.656H5V7h6.24zM20 7v4.62c0 3.564-2.343 5.981-5.625 6.63l-.623-1.344c1.521-.573 2.498-2.274 2.498-3.656h-2.49V7H20z" fill="#fff"/></svg><svg fill="inherit" viewBox="0 0 52 11" id="ruso" xmlns="http://www.w3.org/2000/svg"><path d="M13.424 6.353V.252h2.191v6.025c0 1.415.823 2.388 2.39 2.388 1.567 0 2.373-.974 2.373-2.388V.252h2.207v6.086c0 2.526-1.492 4.245-4.58 4.245-3.09 0-4.58-1.735-4.58-4.23zM27.791 8.97l1.17-1.644a4.448 4.448 0 003.227 1.37c1.187 0 1.765-.548 1.765-1.127 0-1.795-5.843-.563-5.843-4.382C28.11 1.5 29.57.1 31.96.1c1.613 0 2.951.486 3.956 1.415l-1.203 1.582c-.82-.76-1.916-1.11-2.951-1.11-.928 0-1.445.41-1.445 1.02 0 1.612 5.827.532 5.827 4.32 0 1.857-1.324 3.257-4.062 3.257-1.947 0-3.347-.655-4.291-1.614zm13.421-3.678C41.212 2.21 43.467 0 46.551 0c3.098 0 5.353 2.209 5.353 5.292 0 3.083-2.255 5.292-5.353 5.292-3.084 0-5.339-2.209-5.339-5.292zm8.452 0c0-1.916-1.227-3.358-3.113-3.358-1.887 0-3.099 1.442-3.099 3.358 0 1.903 1.212 3.36 3.099 3.36 1.886 0 3.113-1.457 3.113-3.36zM5.935 6.535c1.095-.258 2.222-1.217 2.222-3.012 0-1.887-1.293-3.271-3.409-3.271H0v1.901h4.429c.867 0 1.521.517 1.521 1.37 0 .851-.655 1.37-1.521 1.37H0V10.4h2.16V6.795h1.584L5.737 10.4h2.48L5.936 6.535z"/></svg><svg fill="inherit" viewBox="0 0 24 24" id="tel" xmlns="http://www.w3.org/2000/svg"><path d="M20.943 16.576l-.843 3.546c-.105.527-.527.878-1.053.878C10.198 20.965 3 13.767 3 4.918c0-.527.316-.948.843-1.053l3.546-.843c.492-.105 1.018.176 1.23.632l1.65 3.827c.175.457.07.984-.317 1.265L8.056 10.29a12.193 12.193 0 005.618 5.584l1.545-1.897c.281-.35.808-.491 1.264-.316l3.828 1.65c.456.246.737.773.632 1.265z"/></svg><svg fill="none" viewBox="0 0 60 60" id="time" xmlns="http://www.w3.org/2000/svg"><path d="M30 0C13.477 0 0 13.477 0 30c0 16.64 13.477 30 30 30 9.258 0 17.46-4.102 22.969-10.547.351-.469.351-1.055-.117-1.406-.352-.352-.938-.234-1.29.117-5.156 6.094-12.89 9.961-21.562 9.961-15.469 0-28.125-12.54-28.125-28.125C1.875 14.531 14.531 1.875 30 1.875c12.305 0 22.734 7.852 26.602 18.75h-12.54c-.468 0-.937.469-.937.938 0 .585.469.937.938.937h15c.585 0 .937-.352.937-.938v-15c0-.468-.352-.937-.938-.937-.468 0-.937.469-.937.938V19.57C53.906 8.203 42.891 0 30 0zm0 15c-.469 0-.938.469-.938.938v13.71l-9.96 10.079a.92.92 0 000 1.289.92.92 0 001.289 0l10.312-10.313c.235-.117.235-.351.235-.703V15.937c0-.468-.352-.937-.938-.937z" fill="#2E4D99"/></svg></svg>