<?xml version="1.0" encoding="utf-8"?><svg viewBox="0 0 25 24" xmlns="http://www.w3.org/2000/svg" xmlns:xlink="http://www.w3.org/1999/xlink"><style>:root>svg{display:none}:root>svg:target{display:block}</style><svg fill="inherit" viewBox="0 0 25 24" id="arrow-bottom" xmlns="http://www.w3.org/2000/svg"><path fill-rule="evenodd" clip-rule="evenodd" d="M12.333 14.878L6.098 7.351l-.765.644 7.521 9 7.48-9-.765-.645-6.236 7.529-.5.616-.5-.617z"/></svg><svg fill="inherit" viewBox="0 0 24 24" id="arrow-left" xmlns="http://www.w3.org/2000/svg"><path fill-rule="evenodd" clip-rule="evenodd" d="M2.117 12l7.527-6.235L9 5l-9 7.521L9 20l.645-.764L2.116 13H24v-1H2.117z"/></svg><svg fill="inherit" viewBox="0 0 24 24" id="arrow-right" xmlns="http://www.w3.org/2000/svg"><path fill-rule="evenodd" clip-rule="evenodd" d="M21.883 12l-7.527 6.235L15 19l9-7.521L15 4l-.645.764L21.884 11H0v1h21.883z"/></svg><svg fill="none" viewBox="0 0 24 24" id="burger" xmlns="http://www.w3.org/2000/svg"><path d="M2 2h4v4H2V2zm0 8h4v4H2v-4zm0 8h4v4H2v-4zm8-16h4v4h-4V2zm0 8h4v4h-4v-4zm0 8h4v4h-4v-4zm8-16h4v4h-4V2zm0 8h4v4h-4v-4zm0 8h4v4h-4v-4z" fill="#fff"/></svg><svg fill="none" viewBox="0 0 24 24" id="cross" xmlns="http://www.w3.org/2000/svg"><path fill-rule="evenodd" clip-rule="evenodd" d="M12.5 12.018L19.518 5l.482.482-7.018 7.018L20 19.518l-.482.482-7.018-7.018L5.482 20 5 19.518l7.018-7.018L5 5.482 5.482 5l7.018 7.018z" fill="#2C3039"/></svg><svg fill="inherit" viewBox="0 0 24 24" id="tel" xmlns="http://www.w3.org/2000/svg"><path d="M20.943 16.576l-.843 3.546c-.105.527-.527.878-1.053.878C10.198 20.965 3 13.767 3 4.918c0-.527.316-.948.843-1.053l3.546-.843c.492-.105 1.018.176 1.23.632l1.65 3.827c.175.457.07.984-.317 1.265L8.056 10.29a12.193 12.193 0 005.618 5.584l1.545-1.897c.281-.35.808-.491 1.264-.316l3.828 1.65c.456.246.737.773.632 1.265z"/></svg></svg>