<?xml version="1.0" encoding="utf-8"?><svg viewBox="0 0 60 60" xmlns="http://www.w3.org/2000/svg" xmlns:xlink="http://www.w3.org/1999/xlink"><style>:root>svg{display:none}:root>svg:target{display:block}</style><svg fill="inherit" viewBox="0 0 25 24" id="arrow-bottom" xmlns="http://www.w3.org/2000/svg"><path fill-rule="evenodd" clip-rule="evenodd" d="M12.333 14.878L6.098 7.351l-.765.644 7.521 9 7.48-9-.765-.645-6.236 7.529-.5.616-.5-.617z"/></svg><svg fill="inherit" viewBox="0 0 24 24" id="arrow-left" xmlns="http://www.w3.org/2000/svg"><path fill-rule="evenodd" clip-rule="evenodd" d="M2.117 12l7.527-6.235L9 5l-9 7.521L9 20l.645-.764L2.116 13H24v-1H2.117z"/></svg><svg fill="inherit" viewBox="0 0 24 24" id="arrow-right" xmlns="http://www.w3.org/2000/svg"><path fill-rule="evenodd" clip-rule="evenodd" d="M21.883 12l-7.527 6.235L15 19l9-7.521L15 4l-.645.764L21.884 11H0v1h21.883z"/></svg><svg fill="inherit" viewBox="0 0 24 24" id="burger" xmlns="http://www.w3.org/2000/svg"><path d="M2 2h4v4H2V2zm0 8h4v4H2v-4zm0 8h4v4H2v-4zm8-16h4v4h-4V2zm0 8h4v4h-4v-4zm0 8h4v4h-4v-4zm8-16h4v4h-4V2zm0 8h4v4h-4v-4zm0 8h4v4h-4v-4z"/></svg><svg fill="none" viewBox="0 0 60 60" id="coin" xmlns="http://www.w3.org/2000/svg"><path d="M18.164 11.953c.469.352 1.055.82 1.64 1.172-.937 0-1.874.117-2.812.117-1.289-1.055-2.11-2.46-2.11-3.984 0-1.406.821-2.813 2.11-3.867 1.172-1.172 2.813-2.11 4.805-2.93C25.898.938 31.407 0 37.5 0c5.977 0 11.484.938 15.586 2.46 1.992.821 3.633 1.759 4.805 2.93C59.18 6.446 60 7.853 60 9.259v24.61c0 1.523-.82 2.812-2.11 3.984-1.171 1.054-2.812 1.992-4.921 2.695-1.29.586-2.696.937-4.219 1.289V39.96c1.29-.352 2.46-.703 3.633-1.172 1.875-.703 3.281-1.523 4.336-2.344.937-.937 1.406-1.758 1.406-2.578v-8.554c-.117 0-.117 0-.234.117-1.172 1.054-2.813 1.992-4.922 2.695-1.29.586-2.696.938-4.219 1.29v-1.876c1.29-.352 2.46-.703 3.633-1.055 1.875-.82 3.281-1.64 4.336-2.46.937-.938 1.406-1.758 1.406-2.579v-8.32c-.117.117-.117.117-.234.117-1.172 1.172-2.813 2.11-4.805 2.93-2.461.937-5.273 1.64-8.438 1.992-.82-.586-1.757-1.055-2.812-1.523 4.102-.352 7.734-1.172 10.547-2.227 1.875-.703 3.281-1.64 4.336-2.46.937-.938 1.406-1.876 1.406-2.696 0-.703-.469-1.64-1.406-2.578-1.055-.82-2.461-1.758-4.336-2.461-3.75-1.524-9.024-2.461-14.883-2.461-5.977 0-11.25.937-15 2.46-1.875.704-3.281 1.641-4.336 2.462-.937.937-1.289 1.875-1.289 2.578 0 .82.352 1.758 1.29 2.695zM0 26.133c0-1.406.703-2.813 1.992-3.867 1.172-1.172 2.813-2.11 4.805-2.93 4.101-1.523 9.61-2.578 15.703-2.578 5.977 0 11.484 1.055 15.586 2.578 1.992.82 3.633 1.758 4.805 2.93C44.18 23.32 45 24.726 45 26.133v24.61c0 1.523-.82 2.812-2.11 3.984-1.171 1.054-2.812 1.992-4.921 2.695-3.985 1.64-9.492 2.46-15.469 2.46-6.094 0-11.602-.82-15.586-2.46-2.11-.703-3.75-1.64-4.922-2.695C.703 53.555 0 52.266 0 50.742v-24.61zm3.164 2.695c1.055.82 2.461 1.758 4.336 2.461 3.75 1.406 9.023 2.344 15 2.344 5.86 0 11.133-.938 14.883-2.344 1.875-.703 3.281-1.64 4.336-2.46.937-.938 1.406-1.876 1.406-2.696 0-.82-.469-1.64-1.406-2.578-1.055-.82-2.461-1.758-4.336-2.461-3.75-1.524-9.024-2.461-14.883-2.461-5.977 0-11.25.937-15 2.46-1.875.704-3.281 1.641-4.336 2.462-.937.937-1.289 1.758-1.289 2.578 0 .82.352 1.758 1.29 2.695zm39.727 1.29c-1.172 1.171-2.813 2.109-4.805 2.929-4.102 1.523-9.61 2.46-15.586 2.46-6.094 0-11.602-.937-15.703-2.46-1.992-.82-3.633-1.758-4.805-2.93-.117 0-.117 0-.117-.117v8.32c0 .82.352 1.64 1.29 2.578 1.054.82 2.46 1.641 4.335 2.461 3.75 1.407 9.023 2.344 15 2.344 5.86 0 11.133-.937 14.883-2.344 1.875-.82 3.281-1.64 4.336-2.46.937-.938 1.406-1.758 1.406-2.579V30c-.117.117-.117.117-.234.117zM1.992 42.304l-.117-.117v8.554c0 .82.352 1.64 1.29 2.578 1.054.82 2.46 1.64 4.335 2.344 3.75 1.523 9.023 2.344 15 2.344 5.86 0 11.133-.82 14.883-2.344 1.875-.703 3.281-1.523 4.336-2.344.937-.937 1.406-1.758 1.406-2.578v-8.554c-.117 0-.117 0-.234.117-1.172 1.054-2.813 1.992-4.922 2.695-3.985 1.64-9.492 2.578-15.469 2.578-6.094 0-11.602-.937-15.586-2.578-2.11-.703-3.75-1.64-4.922-2.695z" fill="#2E4D99"/></svg><svg fill="none" viewBox="0 0 24 24" id="cross" xmlns="http://www.w3.org/2000/svg"><path fill-rule="evenodd" clip-rule="evenodd" d="M12.5 12.018L19.518 5l.482.482-7.018 7.018L20 19.518l-.482.482-7.018-7.018L5.482 20 5 19.518l7.018-7.018L5 5.482 5.482 5l7.018 7.018z" fill="#2C3039"/></svg><svg fill="none" viewBox="0 0 15 16" id="deep" xmlns="http://www.w3.org/2000/svg"><g clip-path="url(#ga)"><path d="M10 10.5h2.5l-5 5-5-5H5V7.375h5V10.5zm0-4.375v-1.25H5v1.25h5zm0-2.509V2.375H5v1.241h5zm0-2.491V.5H5v.625h5z" fill="#2E4D99"/></g><defs><clipPath id="ga"><path fill="#fff" transform="rotate(90 7.25 7.75)" d="M0 0h15v15H0z"/></clipPath></defs></svg><svg fill="none" viewBox="0 0 60 60" id="guarantee" xmlns="http://www.w3.org/2000/svg"><path d="M26.991 42.263c.469-1.404.469-1.404 1.405-2.458l.351-.351c1.054-1.054 1.522-2.576 1.054-4.098v-.234c-.234-.585-.351-1.054-.351-1.288 0-.351.117-.82.351-1.405v-.234c.468-1.522 0-3.044-1.054-4.097l-.234-.235c-1.053-1.17-1.053-1.17-1.522-2.575l-.117-.468c-.351-1.405-1.405-2.576-2.81-2.927l-.468-.117c-1.405-.352-1.405-.352-2.458-1.405l-.352-.351c-1.053-1.054-2.575-1.522-3.98-1.054l-.351.117c-1.522.351-1.522.351-2.927 0l-.351-.117c-1.405-.468-2.927 0-3.98 1.053l-.352.352c-1.054 1.053-1.054 1.053-2.459 1.405l-.35.117c-1.523.35-2.576 1.522-2.928 2.927l-.117.468c-.468 1.405-.468 1.405-1.405 2.458l-.35.352C.181 29.15-.288 30.673.181 32.195v.234c.234.703.35 1.054.35 1.288 0 .351-.116.703-.35 1.405v.234c-.469 1.522 0 3.044 1.053 4.098l.234.234c1.054 1.17 1.054 1.17 1.522 2.575l.117.469c.352 1.405 1.405 2.575 2.927 2.926l.351.118c.586.117.82.234 1.171.35v12.879c0 .351.117.702.351.82.234.116.352.116.586.116.117 0 .234 0 .35-.117l6.206-3.395 6.088 3.395c.234.235.585.235.936 0 .234-.117.351-.468.351-.82l.117-12.877c.235-.117.469-.234 1.054-.351l.468-.118c1.405-.35 2.459-1.521 2.81-2.926l.117-.469zm-6.439 15.22l-5.151-2.927c-.351-.234-.702-.234-.937 0l-5.15 2.927v-9.834c.936.936 2.458 1.288 3.746.936l.468-.117c1.405-.35 1.405-.35 2.81 0l.35.117c.352.117.703.234 1.055.234 1.053 0 1.99-.468 2.81-1.17v9.834zm4.683-15.688l-.117.468c-.234.703-.82 1.405-1.639 1.64l-.351.117c-1.873.468-1.99.585-3.278 1.873l-.351.35c-.586.586-1.405.82-2.225.586l-.351-.117c-.937-.234-1.405-.351-1.873-.351-.586 0-1.054.117-1.99.351l-.352.117a2.23 2.23 0 01-2.224-.585l-.234-.351c-1.405-1.288-1.522-1.405-3.395-1.873l-.352-.118c-.819-.234-1.404-.936-1.639-1.756l-.117-.35c-.468-1.874-.585-1.991-1.873-3.396l-.351-.234c-.585-.585-.82-1.522-.585-2.342l.117-.234c.234-.82.35-1.288.35-1.873 0-.468-.116-.936-.35-1.756l-.117-.234c-.235-.82 0-1.756.585-2.342l.351-.234c1.288-1.405 1.405-1.522 1.873-3.395l.117-.468c.235-.703.82-1.405 1.64-1.64l.35-.116c1.874-.469 1.99-.586 3.279-1.873l.351-.352a2.23 2.23 0 012.224-.585l.352.117c1.873.468 1.99.468 3.863 0l.351-.117a2.23 2.23 0 012.225.585l.35.352c1.289 1.287 1.406 1.404 3.279 1.873l.351.117c.82.234 1.405.936 1.64 1.639l.116.468c.468 1.873.585 1.99 1.873 3.395l.352.234c.585.586.82 1.522.585 2.342l-.117.234c-.234.82-.351 1.288-.351 1.756 0 .585.117 1.054.35 1.873l.118.234c.234.82 0 1.757-.585 2.342l-.352.234c-1.288 1.405-1.405 1.522-1.873 3.395zm33.6-24.117L42.328 1.171C41.625.468 40.688 0 39.635 0h-17.21a7.47 7.47 0 00-7.492 7.493v6.556c0 .468.351.936.936.936.469 0 .937-.468.937-.936V7.493c0-3.161 2.459-5.62 5.62-5.62h16.858v13.932a4.697 4.697 0 004.683 4.683h14.049v31.844c0 3.044-2.576 5.62-5.62 5.62h-25.17c-.586 0-1.054.35-1.054.936 0 .468.468.936 1.053.936h25.171c4.098 0 7.493-3.395 7.493-7.492V20.37c.117-1.054-.351-1.99-1.054-2.693zm-14.868 1.054c-1.64 0-2.81-1.288-2.81-2.81V2.692l16.04 16.157h-13.23v-.117z" fill="#2E4D99"/></svg><svg fill="none" viewBox="0 0 15 16" id="location" xmlns="http://www.w3.org/2000/svg"><path d="M0 6.125L15 .5l-5.616 15L7.5 8 0 6.125z" fill="#2E4D99"/></svg><svg fill="none" viewBox="0 0 24 24" id="more" xmlns="http://www.w3.org/2000/svg"><path d="M12.438 5a6.555 6.555 0 00-6.486 5.625H4l2.5 3.698L9 10.625H7.22c.445-2.482 2.61-4.375 5.218-4.375a5.318 5.318 0 015.312 5.313 5.318 5.318 0 01-5.313 5.312 5.308 5.308 0 01-4.481-2.473l-.75 1.11a6.543 6.543 0 005.231 2.613 6.564 6.564 0 000-13.125z" fill="#2E4D99"/></svg><svg fill="inherit" viewBox="0 0 24 24" id="play" xmlns="http://www.w3.org/2000/svg"><path d="M6 19.5v-15L19.5 12 6 19.5z"/></svg><svg fill="none" viewBox="0 0 24 24" id="quote" xmlns="http://www.w3.org/2000/svg"><path d="M11.24 7v4.62c0 3.564-2.332 5.98-5.615 6.63l-.622-1.344c1.52-.573 2.497-2.274 2.497-3.656H5V7h6.24zM20 7v4.62c0 3.564-2.343 5.981-5.625 6.63l-.623-1.344c1.521-.573 2.498-2.274 2.498-3.656h-2.49V7H20z" fill="#fff"/></svg><svg fill="inherit" viewBox="0 0 52 11" id="ruso" xmlns="http://www.w3.org/2000/svg"><path d="M13.424 6.353V.252h2.191v6.025c0 1.415.823 2.388 2.39 2.388 1.567 0 2.373-.974 2.373-2.388V.252h2.207v6.086c0 2.526-1.492 4.245-4.58 4.245-3.09 0-4.58-1.735-4.58-4.23zM27.791 8.97l1.17-1.644a4.448 4.448 0 003.227 1.37c1.187 0 1.765-.548 1.765-1.127 0-1.795-5.843-.563-5.843-4.382C28.11 1.5 29.57.1 31.96.1c1.613 0 2.951.486 3.956 1.415l-1.203 1.582c-.82-.76-1.916-1.11-2.951-1.11-.928 0-1.445.41-1.445 1.02 0 1.612 5.827.532 5.827 4.32 0 1.857-1.324 3.257-4.062 3.257-1.947 0-3.347-.655-4.291-1.614zm13.421-3.678C41.212 2.21 43.467 0 46.551 0c3.098 0 5.353 2.209 5.353 5.292 0 3.083-2.255 5.292-5.353 5.292-3.084 0-5.339-2.209-5.339-5.292zm8.452 0c0-1.916-1.227-3.358-3.113-3.358-1.887 0-3.099 1.442-3.099 3.358 0 1.903 1.212 3.36 3.099 3.36 1.886 0 3.113-1.457 3.113-3.36zM5.935 6.535c1.095-.258 2.222-1.217 2.222-3.012 0-1.887-1.293-3.271-3.409-3.271H0v1.901h4.429c.867 0 1.521.517 1.521 1.37 0 .851-.655 1.37-1.521 1.37H0V10.4h2.16V6.795h1.584L5.737 10.4h2.48L5.936 6.535z"/></svg><svg fill="none" viewBox="0 0 60 60" id="table" xmlns="http://www.w3.org/2000/svg"><path d="M15.938 5c3.515 0 6.562 3.047 6.562 6.563v3.75H37v-3.75C37 8.046 39.93 5 43.563 5h9.374c3.516 0 6.563 3.047 6.563 6.563v9.374c0 3.633-3.047 6.563-6.563 6.563h-9.374A6.552 6.552 0 0137 20.937v-3.75H22.5v3.75c0 1.641-.586 3.047-1.523 4.102l5.968 9.25C28 33.47 29.406 33 30.812 33h9.375c3.516 0 6.563 3.047 6.563 6.563v9.374c0 3.633-3.047 6.563-6.563 6.563h-9.374a6.552 6.552 0 01-6.563-6.563v-9.374c0-1.524.469-2.93 1.406-3.985l-5.968-9.25c-1.055.82-2.461 1.172-3.75 1.172H6.562A6.552 6.552 0 010 20.937v-9.375C0 8.047 2.93 5 6.563 5h9.375zm0 1.875H6.562c-2.695 0-4.687 2.11-4.687 4.688v9.374c0 2.696 1.992 4.688 4.688 4.688h9.375c2.578 0 4.687-1.992 4.687-4.688v-9.375a4.701 4.701 0 00-4.688-4.687zm24.25 28h-9.376c-2.695 0-4.687 2.11-4.687 4.688v9.374c0 2.696 1.992 4.688 4.688 4.688h9.375c2.578 0 4.687-1.992 4.687-4.688v-9.374a4.701 4.701 0 00-4.688-4.688zm-1.313-23.313v9.376c0 2.695 1.992 4.687 4.688 4.687h9.374c2.579 0 4.688-1.992 4.688-4.688v-9.375a4.701 4.701 0 00-4.688-4.687h-9.374c-2.696 0-4.688 2.11-4.688 4.688z" fill="#2E4D99"/></svg><svg fill="inherit" viewBox="0 0 24 24" id="tel" xmlns="http://www.w3.org/2000/svg"><path d="M20.943 16.576l-.843 3.546c-.105.527-.527.878-1.053.878C10.198 20.965 3 13.767 3 4.918c0-.527.316-.948.843-1.053l3.546-.843c.492-.105 1.018.176 1.23.632l1.65 3.827c.175.457.07.984-.317 1.265L8.056 10.29a12.193 12.193 0 005.618 5.584l1.545-1.897c.281-.35.808-.491 1.264-.316l3.828 1.65c.456.246.737.773.632 1.265z"/></svg><svg fill="none" viewBox="0 0 60 60" id="time" xmlns="http://www.w3.org/2000/svg"><path d="M30 0C13.477 0 0 13.477 0 30c0 16.64 13.477 30 30 30 9.258 0 17.46-4.102 22.969-10.547.351-.469.351-1.055-.117-1.406-.352-.352-.938-.234-1.29.117-5.156 6.094-12.89 9.961-21.562 9.961-15.469 0-28.125-12.54-28.125-28.125C1.875 14.531 14.531 1.875 30 1.875c12.305 0 22.734 7.852 26.602 18.75h-12.54c-.468 0-.937.469-.937.938 0 .585.469.937.938.937h15c.585 0 .937-.352.937-.938v-15c0-.468-.352-.937-.938-.937-.468 0-.937.469-.937.938V19.57C53.906 8.203 42.891 0 30 0zm0 15c-.469 0-.938.469-.938.938v13.71l-9.96 10.079a.92.92 0 000 1.289.92.92 0 001.289 0l10.312-10.313c.235-.117.235-.351.235-.703V15.937c0-.468-.352-.937-.938-.937z" fill="#2E4D99"/></svg></svg>