<svg width="400" height="350" viewBox="0 0 400 350" fill="none" xmlns="http://www.w3.org/2000/svg">
<path d="M399.522 310.491H319V309.445H319C340.079 309.445 360.295 301.046 375.2 286.094C390.105 271.142 398.479 250.863 398.479 229.718V173.348H399.522V310.491Z" fill="#F2F2F2"/>
<path d="M140.293 106.748C138.153 107.566 135.967 108.26 133.747 108.825C130.814 109.542 129.158 109.874 126.327 108.772C126.228 108.734 126.133 108.695 126.044 108.658C120.678 106.369 116.092 102.566 112.843 97.71C109.593 92.8542 107.822 87.1555 107.743 81.3078C107.728 81.1072 107.728 80.8963 107.728 80.6905C107.726 79.6994 107.773 78.7088 107.87 77.7225C107.994 76.379 108.208 75.0454 108.511 73.7309L108.483 73.7257C106.191 71.375 105.309 68.1549 105.602 64.9194C105.802 62.7259 106.496 60.6066 107.631 58.7212C108.767 56.8358 110.314 55.2335 112.156 54.035C115.044 52.214 118.299 51.0612 121.686 50.6606C122.596 50.5554 123.511 50.5022 124.426 50.5011H133.027C134.804 50.0839 136.608 49.7985 138.427 49.6472H138.441C155.752 48.207 169.403 59.7189 168.13 73.7257C168.12 73.7412 168.106 73.7566 168.097 73.772C167.729 74.3738 167.404 74.9448 167.116 75.4901C166.838 75.9993 166.602 76.488 166.399 76.9509C164.82 80.5311 172.327 136.077 169.634 136.92C168.102 137.399 161.924 96.0656 163.032 103.925C164.428 113.786 148.268 103.791 140.293 106.748Z" fill="#2C3039"/>
<path d="M166.371 207.159L190.367 258.44L98.0594 249.062L117.328 199.833L166.371 207.159Z" fill="#FFB6B6"/>
<path d="M214.541 309.975C198.49 315.335 181.574 317.607 164.682 316.674L157.336 304.724C157.336 304.724 157.029 309.175 156.57 315.978C148.529 315.044 140.593 313.356 132.865 310.937C118.211 306.34 104.474 299.218 90.549 292.649C87.7286 275.784 86.6703 249.778 102.263 234.638L186.192 250.065C186.192 250.065 199.657 260.169 196.055 263.788C192.453 267.401 191.895 266.842 194.262 269.216C196.629 271.59 201.743 274.764 201.795 276.84C201.816 277.651 207.556 292.351 214.541 309.975Z" fill="#2C3039"/>
<path d="M151.715 108.066L131.438 109.485L118.333 122.188L113.743 123.01C109.617 123.748 105.905 125.979 103.31 129.28C100.714 132.581 99.4172 136.722 99.6637 140.919C100.608 156.965 102.722 180.94 107.14 188.718C113.991 200.779 119.649 196.995 113.991 200.779C108.332 204.563 104.533 201.59 107.14 207.57C109.747 213.551 103.617 221.222 103.617 221.222L101.176 223.67L103.764 224.734L186.236 235.499C186.236 235.499 179.105 203.336 183.565 195.435C188.025 187.534 198.838 163.652 189.187 154.307L179.751 120.998L163.521 116.196L151.715 108.066Z" fill="#2E4D99"/>
<path d="M274.46 240.071C273.103 240.028 271.772 239.689 270.558 239.079C269.344 238.469 268.277 237.602 267.43 236.537C266.583 235.473 265.977 234.236 265.654 232.914C265.33 231.591 265.297 230.214 265.556 228.877L226.87 202.595L231.486 190.074L277.206 221.626C279.417 222.231 281.33 223.629 282.582 225.554C283.834 227.479 284.339 229.798 284 232.072C283.662 234.346 282.504 236.416 280.745 237.89C278.987 239.364 276.751 240.14 274.46 240.071V240.071Z" fill="#FFB6B6"/>
<path d="M165.192 119.424L159.57 121.657L189.558 180.408L251.637 222.855L260.586 207.684L213.33 166.739L194.411 130.342C191.749 125.22 187.289 121.269 181.892 119.253C176.496 117.237 170.546 117.298 165.192 119.424Z" fill="#2E4D99"/>
<path d="M140.522 102.899C151.767 102.899 160.882 93.7544 160.882 82.4744C160.882 71.1943 151.767 62.05 140.522 62.05C129.277 62.05 120.161 71.1943 120.161 82.4744C120.161 93.7544 129.277 102.899 140.522 102.899Z" fill="#FFB6B6"/>
<path d="M158.227 73.8374C157.888 74.0171 157.553 74.1827 157.213 74.3483C156.86 74.5186 156.506 74.6889 156.148 74.8497C149.334 77.948 143.784 78.2933 140.417 73.8374C140.324 71.4932 139.798 69.1865 138.865 67.0353C139.03 69.4393 138.398 71.8307 137.069 73.8374H130.288C123.304 78.4873 119.72 82.7587 124.568 98.0233C124.884 99.0261 127.048 134.654 127.666 137.393C117.094 133.325 107.974 90.1332 107.743 78.7522C107.728 78.5677 107.728 78.3737 107.728 78.1845C107.726 77.2728 107.773 76.3616 107.87 75.4552C107.994 74.2176 108.209 72.9907 108.511 71.7845L108.483 71.7797C107.407 70.7481 106.587 69.4788 106.086 68.0728C105.586 66.6669 105.42 65.1632 105.602 63.6815C107.375 61.3521 109.57 59.3783 112.071 57.8633C114.346 56.7584 116.717 55.8654 119.154 55.1954C119.215 55.1812 119.267 55.167 119.329 55.1529C120.074 54.9494 120.838 54.765 121.602 54.6041C123.176 54.273 124.768 54.0314 126.369 53.8804C126.487 53.8757 126.6 53.8662 126.704 53.8662C127.344 53.8666 127.973 54.0398 128.524 54.3676C128.529 54.3676 128.529 54.3724 128.538 54.3724C129.068 54.6897 129.507 55.1383 129.813 55.6752C130.119 56.212 130.283 56.819 130.288 57.4376H137.842C138.12 57.4376 138.398 57.447 138.677 57.4612C149.197 57.8822 157.652 62.3949 158.194 72.7684C158.218 73.1279 158.227 73.4779 158.227 73.8374Z" fill="#2C3039"/>
<path d="M113.565 74.6585C120.973 74.6585 126.979 68.6342 126.979 61.2028C126.979 53.7715 120.973 47.7471 113.565 47.7471C106.157 47.7471 100.151 53.7715 100.151 61.2028C100.151 68.6342 106.157 74.6585 113.565 74.6585Z" fill="#2C3039"/>
<path d="M131.981 54.9792C130.457 62.2517 122.938 66.6012 115.745 64.822C112.291 63.9675 109.317 61.7717 107.477 58.7175C105.637 55.6633 105.081 52.0009 105.933 48.536C107.707 41.3208 116.436 43.4009 122.168 38.6933C130.277 32.0337 134.036 45.1717 131.981 54.9792Z" fill="#2C3039"/>
<path d="M102.177 257.416C113.609 210.65 136.261 170.453 173.776 138.959C175.228 136.564 177.568 134.843 180.283 134.176C182.998 133.508 185.866 133.948 188.257 135.399L277.44 189.642C279.828 191.098 281.543 193.445 282.209 196.169C282.874 198.892 282.435 201.769 280.989 204.168C266.67 252.155 245.223 293.796 209.39 322.624C207.938 325.02 205.598 326.741 202.883 327.408C200.168 328.075 197.3 327.635 194.909 326.184L105.726 271.942C103.338 270.486 101.623 268.139 100.957 265.415C100.292 262.692 100.731 259.815 102.177 257.416Z" fill="#F0F1F2"/>
<path opacity="0.2" d="M118.028 273.177C115.64 271.72 113.925 269.373 113.26 266.65C112.594 263.927 113.033 261.05 114.479 258.651C125.912 211.884 148.564 171.688 186.079 140.194C187.04 138.626 188.397 137.34 190.012 136.467L188.257 135.399C185.866 133.948 182.998 133.508 180.283 134.176C177.568 134.843 175.228 136.563 173.776 138.959C136.262 170.453 113.609 210.649 102.177 257.416C100.731 259.815 100.292 262.692 100.957 265.415C101.623 268.138 103.338 270.486 105.726 271.942L194.909 326.184C196.496 327.142 198.307 327.662 200.16 327.692C202.012 327.721 203.839 327.259 205.456 326.352L118.028 273.177Z" fill="#2C3039"/>
<path d="M222.617 247.048L162.753 210.866C161.802 210.289 161.118 209.358 160.851 208.276C160.584 207.194 160.757 206.049 161.33 205.095C161.904 204.14 162.831 203.452 163.91 203.183C164.988 202.914 166.129 203.086 167.082 203.66L226.945 239.842C227.894 240.42 228.575 241.351 228.841 242.432C229.106 243.513 228.934 244.656 228.361 245.609C227.788 246.563 226.862 247.25 225.785 247.52C224.708 247.789 223.569 247.62 222.617 247.048L222.617 247.048Z" fill="white"/>
<path d="M187.792 199.067L174.622 191.107C173.668 190.534 172.979 189.604 172.708 188.522C172.437 187.44 172.605 186.295 173.176 185.337C173.747 184.38 174.674 183.689 175.753 183.417C176.831 183.145 177.973 183.314 178.928 183.887L178.95 183.901L192.12 191.861C193.069 192.438 193.751 193.37 194.017 194.451C194.283 195.532 194.11 196.675 193.537 197.628C192.964 198.582 192.038 199.269 190.961 199.539C189.884 199.808 188.744 199.639 187.792 199.067Z" fill="white"/>
<path d="M213.102 262.888L153.239 226.706C152.287 226.131 151.601 225.2 151.333 224.118C151.064 223.036 151.235 221.891 151.808 220.936C152.38 219.98 153.308 219.291 154.386 219.021C155.464 218.751 156.605 218.921 157.559 219.494L157.567 219.5L217.431 255.682C218.379 256.26 219.061 257.191 219.327 258.272C219.592 259.353 219.419 260.496 218.847 261.449C218.274 262.403 217.348 263.09 216.271 263.359C215.194 263.629 214.055 263.46 213.102 262.888L213.102 262.888Z" fill="white"/>
<path d="M230.219 178.825C239.876 178.825 247.704 170.973 247.704 161.286C247.704 151.599 239.876 143.746 230.219 143.746C220.562 143.746 212.734 151.599 212.734 161.286C212.734 170.973 220.562 178.825 230.219 178.825Z" fill="#253763"/>
<path d="M200.079 349.227C220.719 349.227 237.451 332.443 237.451 311.739C237.451 291.035 220.719 274.251 200.079 274.251C179.44 274.251 162.708 291.035 162.708 311.739C162.708 332.443 179.44 349.227 200.079 349.227Z" fill="white"/>
<path d="M200.079 349.75C192.585 349.75 185.259 347.521 179.027 343.344C172.796 339.167 167.939 333.231 165.071 326.285C162.203 319.34 161.453 311.697 162.915 304.324C164.377 296.95 167.986 290.177 173.285 284.861C178.585 279.545 185.336 275.925 192.687 274.459C200.037 272.992 207.656 273.745 214.58 276.621C221.504 279.498 227.422 284.37 231.586 290.621C235.75 296.872 237.972 304.221 237.972 311.739C237.961 321.816 233.965 331.478 226.861 338.604C219.757 345.73 210.126 349.739 200.079 349.75ZM200.079 274.774C192.791 274.774 185.667 276.942 179.607 281.004C173.547 285.066 168.824 290.839 166.034 297.593C163.245 304.348 162.516 311.78 163.938 318.951C165.359 326.121 168.869 332.708 174.023 337.877C179.176 343.047 185.742 346.568 192.891 347.994C200.039 349.42 207.448 348.688 214.181 345.89C220.915 343.092 226.67 338.354 230.719 332.276C234.768 326.197 236.929 319.05 236.929 311.739C236.918 301.938 233.032 292.543 226.124 285.613C219.216 278.683 209.849 274.785 200.079 274.774Z" fill="#253763"/>
<path d="M194.981 331.25C194.336 331.25 193.699 331.099 193.122 330.809C192.545 330.52 192.043 330.099 191.656 329.581L181.461 315.945C181.132 315.507 180.894 315.008 180.758 314.477C180.622 313.947 180.592 313.394 180.669 312.852C180.746 312.309 180.928 311.788 181.207 311.316C181.485 310.845 181.853 310.433 182.29 310.104C182.727 309.775 183.224 309.536 183.753 309.4C184.282 309.264 184.833 309.234 185.374 309.312C185.914 309.39 186.435 309.574 186.904 309.853C187.374 310.133 187.784 310.502 188.112 310.941L194.782 319.862L211.914 294.084C212.216 293.629 212.606 293.237 213.059 292.933C213.513 292.628 214.022 292.416 214.557 292.308C215.093 292.201 215.644 292.2 216.179 292.307C216.715 292.413 217.224 292.624 217.679 292.928C218.133 293.232 218.523 293.622 218.827 294.077C219.13 294.532 219.342 295.043 219.449 295.58C219.556 296.117 219.557 296.67 219.451 297.207C219.345 297.744 219.134 298.255 218.832 298.711L198.441 329.393C198.072 329.948 197.576 330.406 196.994 330.728C196.412 331.051 195.762 331.23 195.097 331.248C195.058 331.249 195.02 331.25 194.981 331.25Z" fill="#2E4D99"/>
<path d="M320.771 121.767C322.256 121.64 323.388 120.696 323.3 119.66C323.211 118.624 321.936 117.887 320.451 118.014C318.966 118.141 317.834 119.085 317.922 120.121C318.01 121.157 319.286 121.894 320.771 121.767Z" fill="white"/>
<path d="M337.479 116.081C338.964 115.954 340.097 115.01 340.008 113.974C339.92 112.938 338.645 112.201 337.16 112.328C335.675 112.456 334.542 113.399 334.631 114.435C334.719 115.472 335.994 116.208 337.479 116.081Z" fill="#253763"/>
<path d="M312.85 108.979C314.335 108.852 315.468 107.909 315.379 106.872C315.291 105.836 314.016 105.099 312.531 105.227C311.046 105.354 309.913 106.297 310.002 107.334C310.09 108.37 311.365 109.107 312.85 108.979Z" fill="#0F1D2B" fill-opacity="0.75"/>
<path d="M305.842 104.859C306.481 104.714 306.831 103.849 306.623 102.928C306.416 102.006 305.729 101.376 305.09 101.521C304.451 101.666 304.101 102.531 304.309 103.452C304.516 104.374 305.203 105.004 305.842 104.859Z" fill="#F0F1F2"/>
<path d="M300.852 94.8556C301.491 94.7108 301.841 93.8461 301.633 92.9245C301.425 92.0028 300.739 91.3731 300.1 91.518C299.461 91.6628 299.111 92.5274 299.318 93.4491C299.526 94.3708 300.212 95.0005 300.852 94.8556Z" fill="#253763"/>
<path d="M324.793 108.904C325.432 108.759 325.782 107.894 325.574 106.972C325.367 106.051 324.68 105.421 324.041 105.566C323.402 105.711 323.052 106.575 323.26 107.497C323.467 108.419 324.154 109.048 324.793 108.904Z" fill="#F0F1F2"/>
<path d="M317.495 114.981C318.134 114.836 318.484 113.972 318.276 113.05C318.069 112.128 317.382 111.498 316.743 111.643C316.104 111.788 315.754 112.653 315.962 113.574C316.169 114.496 316.856 115.126 317.495 114.981Z" fill="#0F1D2B" fill-opacity="0.75"/>
<path d="M330.781 119.931C331.42 119.786 331.77 118.922 331.562 118C331.355 117.078 330.668 116.449 330.029 116.593C329.39 116.738 329.04 117.603 329.248 118.525C329.455 119.446 330.142 120.076 330.781 119.931Z" fill="#253763"/>
<path d="M251.786 44.2791C252.04 43.2709 251.076 42.1558 249.631 41.7885C248.186 41.4212 246.808 41.9408 246.554 42.949C246.299 43.9572 247.264 45.0723 248.709 45.4396C250.153 45.8068 251.531 45.2873 251.786 44.2791Z" fill="white"/>
<path d="M234.142 44.165C234.397 43.1568 233.432 42.0417 231.987 41.6744C230.543 41.3071 229.165 41.8267 228.91 42.8349C228.655 43.8431 229.62 44.9582 231.065 45.3255C232.51 45.6928 233.887 45.1732 234.142 44.165Z" fill="#253763"/>
<path d="M255.097 58.9628C255.351 57.9546 254.387 56.8396 252.942 56.4723C251.497 56.105 250.119 56.6246 249.865 57.6328C249.61 58.641 250.575 59.7561 252.02 60.1233C253.464 60.4906 254.842 59.9711 255.097 58.9628Z" fill="#0F1D2B" fill-opacity="0.75"/>
<path d="M259.21 64.4997C259.314 63.5606 258.871 62.7402 258.22 62.6672C257.569 62.5942 256.956 63.2963 256.851 64.2354C256.747 65.1744 257.19 65.9948 257.841 66.0678C258.492 66.1408 259.105 65.4387 259.21 64.4997Z" fill="#F0F1F2"/>
<path d="M260.66 75.5904C260.765 74.6513 260.322 73.8309 259.671 73.7579C259.02 73.6849 258.407 74.387 258.302 75.326C258.198 76.2651 258.641 77.0855 259.292 77.1585C259.943 77.2315 260.556 76.5294 260.66 75.5904Z" fill="#253763"/>
<path d="M242.622 54.4547C242.727 53.5156 242.284 52.6952 241.633 52.6222C240.981 52.5492 240.369 53.2513 240.264 54.1904C240.16 55.1294 240.603 55.9499 241.254 56.0229C241.905 56.0958 242.518 55.3938 242.622 54.4547Z" fill="#F0F1F2"/>
<path d="M251.501 51.1086C251.606 50.1696 251.163 49.3491 250.512 49.2761C249.86 49.2032 249.248 49.9052 249.143 50.8443C249.039 51.7834 249.482 52.6038 250.133 52.6768C250.784 52.7498 251.397 52.0477 251.501 51.1086Z" fill="#0F1D2B" fill-opacity="0.75"/>
<path d="M240.563 42.0686C240.667 41.1295 240.224 40.3091 239.573 40.2361C238.922 40.1631 238.309 40.8652 238.205 41.8043C238.1 42.7433 238.543 43.5638 239.194 43.6367C239.846 43.7097 240.458 43.0077 240.563 42.0686Z" fill="#253763"/>
<path d="M1.04265 137.393H0V0.25H80.5215V1.29591H80.5215C59.4424 1.29591 39.2266 9.69569 24.3215 24.6474C9.41629 39.5991 1.04265 59.8779 1.04265 81.0228V137.393Z" fill="#F2F2F2"/>
<path d="M107.738 257.911C106.405 257.364 105.207 256.532 104.227 255.474C103.246 254.416 102.506 253.158 102.058 251.785C101.61 250.412 101.465 248.958 101.632 247.523C101.8 246.088 102.276 244.707 103.028 243.475L74.2997 202.966L83.5158 192.241L117.286 240.603C119.259 242.027 120.643 244.128 121.176 246.507C121.708 248.886 121.352 251.378 120.176 253.511C118.999 255.645 117.082 257.271 114.79 258.082C112.498 258.893 109.989 258.832 107.738 257.911H107.738Z" fill="#FFB6B6"/>
<path d="M108.398 129.541C106.945 128.683 105.234 128.373 103.573 128.666C101.912 128.96 100.41 129.837 99.3364 131.141L60.5212 185.596L96.4928 236.845L110.569 221.68L88.6729 187.165L117.772 159.372C120.164 154.117 120.529 148.16 118.798 142.65C117.066 137.141 113.361 132.47 108.398 129.541Z" fill="#2E4D99"/>
</svg>
